<?xml version="1.0" encoding="UTF-8" standalone="no"?>
<!-- Created with Inkscape (http://www.inkscape.org/) -->
<svg xmlns:inkscape="http://www.inkscape.org/namespaces/inkscape" xmlns:rdf="http://www.w3.org/1999/02/22-rdf-syntax-ns#" xmlns="http://www.w3.org/2000/svg" xmlns:cc="http://creativecommons.org/ns#" xmlns:dc="http://purl.org/dc/elements/1.1/" xmlns:sodipodi="http://sodipodi.sourceforge.net/DTD/sodipodi-0.dtd" id="svg2" sodipodi:docname="_svgclean2.svg" viewBox="0 0 673.06041 533.13365" version="1.1" inkscape:version="0.48.3.1 r9886">
  <defs id="defs4">
    <filter id="filter5062" inkscape:collect="always" color-interpolation-filters="sRGB">
      <feGaussianBlur id="feGaussianBlur5064" stdDeviation="0.21414837" inkscape:collect="always"/>
    </filter>
    <filter id="filter5070" inkscape:collect="always" color-interpolation-filters="sRGB">
      <feGaussianBlur id="feGaussianBlur5072" stdDeviation="0.20880655" inkscape:collect="always"/>
    </filter>
    <filter id="filter6334" height="1.0333" width="1.0188" color-interpolation-filters="sRGB" y="-.016662" x="-.0093765" inkscape:collect="always">
      <feGaussianBlur id="feGaussianBlur6336" stdDeviation="0.47082245" inkscape:collect="always"/>
    </filter>
    <filter id="filter5086" height="1.5132" width="1.0252" color-interpolation-filters="sRGB" y="-.25658" x="-.012589" inkscape:collect="always">
      <feGaussianBlur id="feGaussianBlur5088" stdDeviation="0.234278" inkscape:collect="always"/>
    </filter>
  </defs>
  <sodipodi:namedview id="base" bordercolor="#666666" inkscape:pageshadow="2" inkscape:window-y="0" pagecolor="#ffffff" inkscape:window-maximized="0" inkscape:zoom="0.35" inkscape:window-x="372" inkscape:window-height="484" showgrid="false" borderopacity="1.0" inkscape:current-layer="layer1" inkscape:cx="307.17672" inkscape:cy="208.36268" inkscape:window-width="370" inkscape:pageopacity="0.0" inkscape:document-units="px"/>
  <g id="layer1" inkscape:label="Layer 1" inkscape:groupmode="layer" transform="translate(-67.823 -207.59)">
    <g id="g5319" inkscape:export-ydpi="90" inkscape:export-xdpi="90" transform="matrix(2.9032,0,0,2.9032,1162.8,-7730.7)">
      <g id="g5803">
        <g id="g5185" transform="translate(-305.74,137.72)">
          <path id="path5187" inkscape:connector-curvature="0" sodipodi:nodetypes="cccccccccccccccccccccc" style="stroke:#1a1a1a;stroke-width:1px;fill:#000000" d="m-65.497 2623.8 12.405-4.9619c43.521-22.958 94.676-31.452 163.25-6.9467l14.886 1.9847 2.9772 6.9467 0.99239 18.359 0.49619-0.4962 0.49619 15.382c-14.097 5.0568-43.083 1.9961-52.1-2.4809l-1.9848-18.855h0.49619l-2.9771-11.909-85.345 1.4886-3.9695 6.9467 0.49619 5.9543 0.99238 0.4962-0.99238 1.4885 0.49619 17.367c-27.904 10.913-40.359 12.358-50.115 12.901l-2.481-18.855 1.9848-0.4961z"/>
          <path id="path5189" style="opacity:.653;stroke-opacity:.99526;fill-rule:evenodd;color:#000000;stroke:#ffffff;stroke-linecap:round;fill:#ffffff" inkscape:connector-curvature="0" d="m111.15 2655.1c1.4086-4.2751-3.0444-7.3756 0.49619-10.916 1.2563-1.2563 0.49619-7.2008 0.49619-9.9238v-5.4581c0-0.122-2.19-6.1595-2.481-6.4505-0.33079-0.3308-1.654 0.3308-1.9848 0-0.34702-0.347-4.9846-3.4507-6.4505-1.9848-1.3822 1.3822 0.0861 4.7898-0.49619 5.9543-0.75022 1.5005-3.2807 1.5994-3.9695 2.9772-0.5839 1.1678-0.28696 3.0548-0.99238 4.4657-0.85107 1.7021-2.7036 3.696-3.9695 4.9619-0.81464 0.8147-0.87849 7.5568-0.49619 7.9391 0.52175 0.5217 1.5623 2.0585 1.9848 2.4809 0.23391 0.2339 0.99238-0.3308 0.99238 0 0 0.7571-0.011 1.9738 0.49619 2.481 0.26513 0.2651 5.4581-0.1891 5.4581 0 0 0.3308-1.1403-0.2959-0.99238 0 1.5538 3.1076 7.3083 0.076 9.4276 1.4886 0.88119 0.5874 1.654 1.3231 2.481 1.9847z"/>
          <path id="path5191" style="opacity:.63158;stroke-opacity:.99526;fill-rule:evenodd;color:#000000;stroke:#ffffff;stroke-linecap:round;fill:#ffffff" inkscape:connector-curvature="0" d="m-41.68 2627.3c0.74032 1.9622 0.27162 6.5863 1.9848 7.4429 1.0241 0.512 2.6264 0.6416 3.4733 1.4886 0.36963 0.3696 0.71202 1.7044 0.99238 1.9847 0.32487 0.3249 1.1467 0.3086 1.4886 0.9924 2.1688 4.3376 3.2406 9.1949 6.9467 12.901 1.6221 1.6221-2.0907 4.1813-2.481 4.9619-1.4422 2.8845-2.7108 1.1073-5.4581 2.481-2.3079 1.1539-3.5623 1.8957-3.9695 1.4885-0.69152-0.6915-1.6136-5.5831-2.9771-6.9467-0.69-0.6899-0.04897-3.075-0.49619-3.9695-0.45559-0.9112-1.4293-1.6477-1.9848-2.4809-0.76483-1.1473 0.24966-2.4779 0-2.9772-0.39174-0.7835-1.5683-1.5683-2.481-2.4809-0.68548-0.6855-0.30691-3.7803-0.99238-4.4658-1.2752-1.2752-1.3137-3.2984-1.9848-3.9695-2.0845-2.0845-2.1919-4.2585 0-6.4505 0.7057-0.7057 7.3094 0 7.9391 0z"/>
          <path id="path5193" inkscape:connector-curvature="0" sodipodi:nodetypes="cscsccccscccccccscccsc" style="opacity:.64632;stroke-opacity:.99526;fill-rule:evenodd;color:#000000;stroke:#ffffff;stroke-linecap:round;fill:#ffffff" d="m-0.76878 2614.2c10.396-0.076 20.271-0.2575 30.767-0.2575 3.2986 0 7.6418 0.7805 10.988 0.2575 3.3498-0.5234 1.6019-1.5453 7.1424-1.5453 1.7298 0 5.5029 0.5165 7.1424 0.7727 0.88804 0.1388 18.389 0.3257 18.68 0.2576 2.2865-0.536-0.58734 0.018 0.54941-0.5151 0.29212-0.137 2.4839 0.1233 2.1976 0.2575-0.18314 0.086-0.80841-0.2575-0.54941-0.2575 1.6473 0 3.5507 0.6535 4.3953 0.2575 1.1098-0.5203 0.34643-1.0024 0.54941-1.2879 0.58472-0.8223 2.1797 0.025 2.7471-0.7726 1.6046-2.2567-9.2634-3.5699-10.988-4.3785-0.85445-0.4006-5.4791-0.084-6.593-0.2576-4.0328-0.6302-5.6671-1.7441-9.34-2.3181-1.9606-3.8786-26.513-2.4747-27.471-1.8744-3.8299 0.8977-13.344 1.654-17.581 2.6471-1.7858 0.4186-4.4138 1.8117-6.0435 2.5756-1.549 0.7262-4.3404 0.4207-6.5929 0.7727-1.1152 0.1743-2.9361 2.4953-3.2965 2.8332-0.11712 0.1098 0.099368 1.5454 0 1.5454-0.10764 0 2.0158 0.8075 3.2965 1.2877z"/>
          <path id="path5195" inkscape:connector-curvature="0" sodipodi:nodetypes="cc" style="stroke:#666666;stroke-width:1px;fill:none" d="m-14.39 2635.7c-17.367 10.548-34.733 11.894-52.1 14.886"/>
          <path id="path5197" inkscape:connector-curvature="0" sodipodi:nodetypes="cc" style="stroke:#666666;stroke-width:1px;fill:none" d="m129.01 2639.2c-17.697 2.5313-35.395-0.5808-53.092-5.9543"/>
          <path id="path5199" style="opacity:.70445;stroke-opacity:.99526;fill-rule:evenodd;color:#000000;stroke:#ffffff;stroke-linecap:round;fill:#ffffff" inkscape:connector-curvature="0" d="m-19.848 2622.3c-1.5695-1.3582-3.4369 3.9695-4.4657 3.9695-0.92633 0-0.30108-1.5945-0.49619-1.9847-0.27343-0.5469-1.373-3.3578-1.4886-3.4734-0.85326-0.8532-3.7614-2.4809-1.4886-2.4809 4.3844 0 2.8657 2.9548 7.9391 3.9695z"/>
          <path id="path5201" style="opacity:.70040;stroke-opacity:.99526;fill-rule:evenodd;color:#000000;stroke:#ffffff;stroke-linecap:round;fill:#ffffff" inkscape:connector-curvature="0" d="m82.368 2622.8c0.42032-2.7067 2.1708-2.1708 3.4733-3.4733 2.4562-2.4562-5.9543-7.5675-5.9543-1.4886 0 3.31-3.2302 0.393 2.481 4.9619z"/>
          <path id="path5203" style="opacity:.63158;stroke-opacity:.99526;fill-rule:evenodd;color:#000000;stroke:#ffffff;stroke-linecap:round;fill:#ffffff" inkscape:connector-curvature="0" d="m-52.1 2627.8c-1.555-0.1604-11.754 2.2932-11.909 1.9848-1.1434-2.2868 9.1092-3.1045 11.909-1.9848z"/>
          <path id="path5205" inkscape:connector-curvature="0" sodipodi:nodetypes="ccccc" style="stroke:#1a1a1a;stroke-width:1px;fill:#000000" d="m128.02 2654.6-7.4429 4.4658c-5.2764 10.998-11.785 15.834-18.359 20.344-4.0204-8.9314-14.28-17.863-23.321-26.794z"/>
          <path id="path5207" style="opacity:.42105;stroke-opacity:.99526;fill-rule:evenodd;color:#000000;stroke:#ffffff;stroke-linecap:round;fill:#ffffff" inkscape:connector-curvature="0" d="m108.17 2661c-0.33327 0.083-2.2596 0.7354-2.9772 0.4962-0.56575-0.1886-0.39604-1.4886-0.99238-1.4886-3.6771 0-6.077 0.7861-8.4353 0-1.1291-0.3763-5.2452-3.6862-6.9467-1.9847-0.63772 0.6377 3.9808 2.9828 4.9619 3.4733 0.06514 0.033 6.7698-0.6731 7.4429 0 0.80159 0.8016 4.2439 1.3514 4.9619 0.9924 0.73968-0.3698 1.3232-0.9924 1.9848-1.4886z"/>
          <path id="path5209" inkscape:connector-curvature="0" sodipodi:nodetypes="ccc" style="stroke:#000000;stroke-width:1px;fill:#000000" d="m-63.512 2667c18.636 1.546 33.366-4.7202 48.131-10.916"/>
        </g>
        <g id="g5090" transform="translate(-306.54,133.98)">
          <path id="path4278" d="m9.2102 2725.4 0.59421 17.232h48.131l-0.2971-17.826z" sodipodi:nodetypes="ccccc" style="stroke:#000000;stroke-width:1px;fill:#000000" inkscape:connector-curvature="0"/>
          <path id="path4262" d="m2.3768 2613.9 1.1884 4.4565 1.1884 6.8334c15.499-2.8219 33.617-1.2793 51.399-0.2971l0.89131-11.884 2.0797-1.1885h1.1884l1.4855 14.558-58.827 2.9711-4.1595-14.261z" sodipodi:nodetypes="ccccccccccc" style="stroke:#000000;stroke-width:1px;fill:#4d4d4d" inkscape:connector-curvature="0"/>
          <path id="path4264" d="m-15.152 2651.7-5.0508 15.746c-1.4197 1.9155-2.8562 3.898-5.0508 8.9131-19.512 18.927-20.178 32.71-25.551 43.08 21.47-11.182 34.676-32.005 37.138-65.363z" sodipodi:nodetypes="cccccc" style="fill:#4d4d4d" inkscape:connector-curvature="0"/>
          <path id="path4266" inkscape:connector-curvature="0" sodipodi:nodetypes="cccccc" style="fill:#4d4d4d" d="m76.95 2646.6 8.616 13.667c1.4197 1.9155 3.1533 2.7096 5.3479 7.7247 12.218 5.0456 18.081 34.224 22.877 47.537-25.145-8.732-37.471-32.123-38.326-66.551z"/>
          <path id="path4260" d="m1.7826 2614.2-8.0218 0.2971-2.971 1.7826c-2.7945 12.918-7.1111 26.141-6.2392 38.326-1.1219 32.803-13.544 52.95-34.464 63.58l-0.2971 21.094c2.2511 5.1899 5.0128 9.6138 10.399 10.102l145.88-2.0798c4.7314-2.1019 6.7128-6.9539 8.3189-12.181l-1.7826-18.42-1.7826-5.3479c-32.916-16.717-25.763-32.071-32.384-56.45-1.3649-14.44-5.3012-28.236-9.8044-41.892l-9.5073-0.2971v13.667l-55.855 1.4855-1.1884-5.3478z" sodipodi:nodetypes="cccccccccccccccccc" style="stroke:#000000;stroke-width:1px;fill:#000000" inkscape:connector-curvature="0"/>
          <path id="path4268" d="m-15.449 2717.3c9.8519-0.1401 19.331 0.5361 29.116 0.5361 0.94192 0 5.1548 0.6521 5.9421 0.1786 2.4346-1.464 11.23-0.8933 15.449-0.8933 2.1915 0 13.965 0.3571 15.152 0 1.183-0.3557 1.7118-0.2836 2.971-0.536 0.84666-0.1698 2.3954-0.8375 3.5652-1.072 2.4737-0.4958 5.7516 0.3088 8.3189 0 2.1627-0.2601-0.22961-0.021 1.4855-0.536 0.78866-0.2371 2.6278-0.2446 3.5652-0.3573 7.4479-0.8958 19.402 1.2237 25.848-0.7146 0.75352-0.2267 6.7777 0.2903 6.2392-0.3573-0.20026-0.2409-1.6955-0.2419-2.0797-0.3574-4.1709-1.2542-8.6672-0.7146-13.667-0.7146-2.5044 0-17.344-0.2899-18.123 0.1786-0.29047 0.1746-8.1579-0.092-9.5073 0.1787-3.6939 0.7404-9.471-0.6029-13.37 0.1786-1.0583 0.2121-2.7438 0-3.8623 0-1.9456 0-12.948-0.084-14.261 0.1787-1.1952 0.2396-2.362 0-3.5652 0.1786-0.49254 0.074-1.3315 0.4004-1.7826 0.5361-1.2476 0.3751-22.529 0.3573-25.848 0.3573-2.368 0-6.7384 0.3002-8.0218 1.0719-1.5547 0.935-0.34379 2.3528-3.5652 1.9653z" style="opacity:.78138;color:#000000;fill:#ffffff" inkscape:connector-curvature="0"/>
          <path id="path4270" d="m-1.4189 2625.8c-0.66637 0.01-6.9337 0.9049-7.3593 1.1884-0.26595 0.1772 0 2.2778 0 2.6739 0 0.6899-0.24059-0.5473-0.44602 0.0001-0.10536 0.2807-0.88 1.0158-1.115 1.4855-0.62044 1.2398 0.1297 3.344-0.22301 4.7536-0.07034 0.2812-0.34214 2.2385-0.44602 2.3769-0.46142 0.6147 0.01804-0.9394-0.44602 0.2971-0.63638 1.6956 1.6101 3.1702 0.66903 5.0507-0.46945 0.9382-1.5611 2.59-1.5611 3.8624 0 2.7837 0.76088 2.7263-0.22301 5.3479-0.19134 0.5098 0.38239 1.4855-0.44602 1.4855-0.05407 0-0.94545-0.5231-0.66903-0.8913 0.32168-0.4286 1.5839 0.2819 2.0071 0 0.30379-0.2024 0.10724-2.4483 2.2301-3.8624 0.45194-0.301-0.86814-3.8942 0-5.0507 0.42979-0.5726 0.62778 0.027 1.115-0.2971 0.078375-0.052 2.6296-2.6121 2.6761-2.674 1.121-1.4934 1.3956-3.3448 2.4531-4.7536 0.51335-0.6839 3.2227 0.029 3.5682-0.8914 0.42308-1.1272 0.1125-5.6423-0.22301-6.5362-0.4907-1.3075-1.0551-2.217-1.5611-3.5653z" sodipodi:nodetypes="ccscsccscscscccccccccc" style="opacity:.70445;color:#000000;fill-rule:evenodd;filter:url(#filter5062);fill:#ffffff" inkscape:connector-curvature="0"/>
          <path id="path4272" d="m51.696 2628.2c2.1546-0.3211 4.5061 0.2765 6.4794 0.2765 1.0535 0 5.2225-0.6807 5.916 0 0.45644 0.4482-0.0941 1.0448 0.84514 1.6595 0.96911 0.6342 2.5021-0.5531 3.3806-0.5531 0.52472 0 1.8066 2.5816 1.8797 2.6534 0.07457 0.073 0.89131 0.7157 0.89131 0.8297 0 2.6394 1.4547 2.5603 1.4547 4.5374 0 1.5813-0.50785 4.0357 0 5.5313 0.18385 0.5415 1.1584 2.9804 0.84514 3.5955-0.20998 0.4123-0.7069 0.6236-1.1269 0.8297-0.5312 0.2607-1.0964 0.5531-1.6903 0.5531-0.37562 0 0-0.7375 0-1.1063 0-1.216-0.14865-2.2278-0.56343-3.0422-0.52159-1.0241-1.8027-1.327-2.2537-2.2126-0.26508-0.5205-0.28942-1.809-0.56343-2.2125-1.0503-1.5468-2.0517-2.724-2.5354-4.1486-0.53097-1.5638-2.8028-0.083-3.944-0.8297-0.45043-0.2948-0.3271-0.5754-0.84514-0.8297-0.52586-0.2581-1.4461 0.2581-1.972 0-0.90383-0.4437-3.4557-3.3926-3.944-3.8719-0.47286-0.4643-0.8212 0.2883-1.4086 0-0.47947-0.2355-0.84098-1.6493-0.84514-1.6595z" sodipodi:nodetypes="csccscsscsssssccscccccc" style="opacity:0.761;color:#000000;fill-rule:evenodd;filter:url(#filter5070);fill:#ffffff" inkscape:connector-curvature="0"/>
          <path id="path4274" d="m71.305 2650.2c1.0774 5.491 0.35553 8.0803 4.1595 11.884 0.3682 0.3682 0.24074 4.0749 0.89131 5.0507 0.57789 0.8669-0.39786 6.4356 0.2971 7.1305 1.4027 1.4027 0.61263 3.2129 0 5.0508-0.15262 0.4578 0.26222 1.3893 0 1.7826 1.2483-0.2313 10.074 10.574 7.7247 13.37-0.99542 1.9908-3.7996 5.5822-5.3479 7.1305-0.27084 0.2708 0 2.2483 0 2.6739 0 1.3495 2.642 2.9391 3.2681 3.5652 0.59724 0.5973-6.368-2.0153-8.0218-1.1884-2.1339 1.067-5.2239-0.4375-7.4276 0.2971-1.4865 0.4955-4.2444-0.4032-5.645 0.2971-2.6874 1.3437-12.191-0.5942-15.746-0.5942-6.7578 0-16.537-0.6279-22.877 1.4855-3.282 1.094-8.5761-0.6041-12.181 0.2971-0.85723 0.2144-2.1954-0.3878-2.971 0-1.836 0.918-1.8886 1.3228-4.1595 2.0798-0.82768 0.2759-2.1938-0.3886-2.971 0-2.0149 1.0074-11.178 0.3434-14.558 1.1884-1.6618 0.4154-2.7065 1.0561-4.1595 1.7826-1.5489 0.7745-12.196-0.094-15.152 0.8913-0.93843 0.3128-1.6947-0.1212-2.0797-0.8913-0.19379-0.3876 0-1.3703 0-1.7826 0-3.3046 2.9216-3.4043 5.9421-4.1595 0.42522-0.1063 1.1005 0.1926 1.4855 0 0.1387-0.069 0.53381-1.0096 0.89131-1.1884 0.17716-0.089 0.45415 0.1401 0.59421 0 1.9997-1.9997 0.58891-7.417 1.4855-9.2102 1.4419-2.8838 4.3355-0.7702 5.3479-1.7826 0.49517-0.4952-0.49517-2.4759 0-2.9711 0.24759-0.2475 1.2379 0.2476 1.4855 0 0.14855-0.1485-0.14855-0.7427 0-0.8913 1.4492-1.4492 0.36382-4.1292 0.89131-6.2391 0.49959-1.9984 2.3068-3.3551 2.971-5.3479 0.22552-0.6765-0.31592-1.745 0-2.3768 0.57416-1.1484 1.8018-6.2008 0.89131-8.0218-0.47961-0.9593-0.59421-0.9571-0.59421-2.0798 0-1.9615 0.59421-3.1037 0.59421-4.7536 0-0.6899 1.6109-2.5486 0.89131-3.2682-0.44224-0.4422-2.3845-3.2605-1.1884-4.4565 0.99455-0.9946 1.615 1.3178 1.7826 1.4855 0.47319 0.4732 5.1725 0.7696 5.645 0.2971 2.4457-2.4457 6.0359-3.6278 9.5073-5.9421 1.4145-0.9429 2.5466-2.8437 3.5652-3.8623 0.61277-0.6128 4.6544 0 5.645 0 4.908 0 9.4061 0.1175 13.667 2.6739 0.91945 0.5517 1.9856 0.3986 2.971 0.8913 1.1499 0.575 2.099 1.7923 3.2681 2.3769 0.72758 0.3637 4.0779 0.7291 5.0508 0.8913 2.4899 0.415 3.8064 1.7546 5.645 2.6739 0.8221 0.4111 2.9659 0 3.8623 0 1.6216 0 5.3408 0.7463 6.8334 0 0.95671-0.4784 1.6353-1.5236 2.3768-2.0797 1.5162-1.1372 4.4033-2.062 6.2392-2.674 3.463-1.1543 6.1117 1.613 9.2102-1.4855z" sodipodi:nodetypes="csccccccscssssscccscsccsccccsscccccccssccccccscccccscccc" style="opacity:.55061;color:#000000;fill-rule:evenodd;filter:url(#filter6334);fill:#ffffff" inkscape:connector-curvature="0"/>
          <g id="g5126" transform="translate(.57725 3.026)">
            <ellipse id="path5124" sodipodi:rx="40.736" sodipodi:cy="2662.3999" style="stroke-opacity:.99526;color:#000000;stroke:#000000;stroke-linecap:round;stroke-width:.96917;fill:#1a1a1a" d="m 61.414,2662.3999 c 0,19.0787 -18.238129,34.545 -40.736001,34.545 -22.4978711,0 -40.736,-15.4663 -40.736,-34.545 0,-19.0787 18.2381289,-34.545 40.736,-34.545 22.497872,0 40.736001,15.4663 40.736001,34.545 z" sodipodi:ry="34.544998" rx="40.736" ry="34.545" transform="matrix(1.1042 0 0 .96416 8.8653 92.454)" cy="2662.4" cx="20.678" sodipodi:cx="20.677999"/>
            <ellipse id="path5122" sodipodi:rx="40.736" sodipodi:cy="2662.3999" style="stroke-opacity:.99526;color:#000000;stroke:#000000;stroke-linecap:round;stroke-width:1.0183;fill:#333333" d="m 61.414,2662.3999 c 0,19.0787 -18.238129,34.545 -40.736001,34.545 -22.4978711,0 -40.736,-15.4663 -40.736,-34.545 0,-19.0787 18.2381289,-34.545 40.736,-34.545 22.497872,0 40.736001,15.4663 40.736001,34.545 z" sodipodi:ry="34.544998" rx="40.736" ry="34.545" transform="matrix(1.051 0 0 .91756 9.9645 214.9)" cy="2662.4" cx="20.678" sodipodi:cx="20.677999"/>
            <g id="g5065">
              <g id="g4932" transform="matrix(.82029 0 0 .82029 6.7371 481.08)">
                <ellipse id="path4930" sodipodi:rx="7.4429002" sodipodi:cy="2682.1001" style="stroke-opacity:.99526;fill-rule:evenodd;color:#000000;stroke:#000000;stroke-linecap:round;stroke-width:1.0623;fill:#000000" d="m 42.175902,2682.1001 c 0,3.6995 -3.3323,6.6986 -7.4429,6.6986 -4.110601,0 -7.4429,-2.9991 -7.4429,-6.6986 0,-3.6995 3.332299,-6.6986 7.4429,-6.6986 4.1106,0 7.4429,2.9991 7.4429,6.6986 z" sodipodi:ry="6.6985998" rx="7.4429" ry="6.6986" transform="matrix(1.1471,0,0,1.1481,-5.1099,-398.34)" cy="2682.1" cx="34.733" sodipodi:cx="34.733002"/>
                <ellipse id="path4928" sodipodi:rx="7.4429002" sodipodi:cy="2682.1001" style="stroke-opacity:.99526;fill-rule:evenodd;color:#000000;stroke:#4d4d4d;stroke-linecap:round;stroke-width:1.2191;fill:#4d4d4d" d="m 42.175902,2682.1001 c 0,3.6995 -3.3323,6.6986 -7.4429,6.6986 -4.110601,0 -7.4429,-2.9991 -7.4429,-6.6986 0,-3.6995 3.332299,-6.6986 7.4429,-6.6986 4.1106,0 7.4429,2.9991 7.4429,6.6986 z" sodipodi:ry="6.6985998" rx="7.4429" ry="6.6986" cy="2682.1" cx="34.733" sodipodi:cx="34.733002"/>
              </g>
              <g id="g4948" transform="matrix(.80554 .15488 -.15488 .80554 405.9 512.78)">
                <ellipse id="path4950" sodipodi:rx="7.4429002" sodipodi:cy="2682.1001" style="stroke-opacity:.99526;fill-rule:evenodd;color:#000000;stroke:#000000;stroke-linecap:round;stroke-width:1.0623;fill:#000000" d="m 42.175902,2682.1001 c 0,3.6995 -3.3323,6.6986 -7.4429,6.6986 -4.110601,0 -7.4429,-2.9991 -7.4429,-6.6986 0,-3.6995 3.332299,-6.6986 7.4429,-6.6986 4.1106,0 7.4429,2.9991 7.4429,6.6986 z" sodipodi:ry="6.6985998" rx="7.4429" ry="6.6986" transform="matrix(1.1471,0,0,1.1481,-5.1099,-398.34)" cy="2682.1" cx="34.733" sodipodi:cx="34.733002"/>
                <ellipse id="path4952" sodipodi:rx="7.4429002" sodipodi:cy="2682.1001" style="stroke-opacity:.99526;fill-rule:evenodd;color:#000000;stroke:#4d4d4d;stroke-linecap:round;stroke-width:1.2191;fill:#4d4d4d" d="m 42.175902,2682.1001 c 0,3.6995 -3.3323,6.6986 -7.4429,6.6986 -4.110601,0 -7.4429,-2.9991 -7.4429,-6.6986 0,-3.6995 3.332299,-6.6986 7.4429,-6.6986 4.1106,0 7.4429,2.9991 7.4429,6.6986 z" sodipodi:ry="6.6985998" rx="7.4429" ry="6.6986" cy="2682.1" cx="34.733" sodipodi:cx="34.733002"/>
              </g>
              <g id="g4954" transform="matrix(.66754 .43488 -.47673 .60894 1259 1022.4)">
                <ellipse id="path4956" sodipodi:rx="7.4429002" sodipodi:cy="2682.1001" style="stroke-opacity:.99526;fill-rule:evenodd;color:#000000;stroke:#000000;stroke-linecap:round;stroke-width:1.1122;fill:#000000" d="m 42.175902,2682.1001 c 0,3.6995 -3.3323,6.6986 -7.4429,6.6986 -4.110601,0 -7.4429,-2.9991 -7.4429,-6.6986 0,-3.6995 3.332299,-6.6986 7.4429,-6.6986 4.1106,0 7.4429,2.9991 7.4429,6.6986 z" sodipodi:ry="6.6985998" rx="7.4429" ry="6.6986" transform="matrix(1.1471,0,0,1.1481,-5.1099,-398.34)" cy="2682.1" cx="34.733" sodipodi:cx="34.733002"/>
                <ellipse id="path4958" sodipodi:rx="7.4429002" sodipodi:cy="2682.1001" style="stroke-opacity:.99526;fill-rule:evenodd;color:#000000;stroke:#4d4d4d;stroke-linecap:round;stroke-width:1.2764;fill:#4d4d4d" d="m 42.175902,2682.1001 c 0,3.6995 -3.3323,6.6986 -7.4429,6.6986 -4.110601,0 -7.4429,-2.9991 -7.4429,-6.6986 0,-3.6995 3.332299,-6.6986 7.4429,-6.6986 4.1106,0 7.4429,2.9991 7.4429,6.6986 z" sodipodi:ry="6.6985998" rx="7.4429" ry="6.6986" cy="2682.1" cx="34.733" sodipodi:cx="34.733002"/>
              </g>
              <g id="g4960" transform="matrix(.54217 .31806 -.38719 .44536 1017.5 1453.6)">
                <ellipse id="path4962" sodipodi:rx="7.4429002" sodipodi:cy="2682.1001" style="stroke-opacity:.99526;fill-rule:evenodd;color:#000000;stroke:#000000;stroke-linecap:round;stroke-width:1.443;fill:#000000" d="m 42.175902,2682.1001 c 0,3.6995 -3.3323,6.6986 -7.4429,6.6986 -4.110601,0 -7.4429,-2.9991 -7.4429,-6.6986 0,-3.6995 3.332299,-6.6986 7.4429,-6.6986 4.1106,0 7.4429,2.9991 7.4429,6.6986 z" sodipodi:ry="6.6985998" rx="7.4429" ry="6.6986" transform="matrix(1.1471,0,0,1.1481,-5.1099,-398.34)" cy="2682.1" cx="34.733" sodipodi:cx="34.733002"/>
                <ellipse id="path4964" sodipodi:rx="7.4429002" sodipodi:cy="2682.1001" style="stroke-opacity:.99526;fill-rule:evenodd;color:#000000;stroke:#4d4d4d;stroke-linecap:round;stroke-width:1.6561;fill:#4d4d4d" d="m 42.175902,2682.1001 c 0,3.6995 -3.3323,6.6986 -7.4429,6.6986 -4.110601,0 -7.4429,-2.9991 -7.4429,-6.6986 0,-3.6995 3.332299,-6.6986 7.4429,-6.6986 4.1106,0 7.4429,2.9991 7.4429,6.6986 z" sodipodi:ry="6.6985998" rx="7.4429" ry="6.6986" cy="2682.1" cx="34.733" sodipodi:cx="34.733002"/>
              </g>
              <g id="g4966" transform="matrix(.48708 .24549 -.34785 .34375 916.77 1715.5)">
                <ellipse id="path4968" sodipodi:rx="7.4429002" sodipodi:cy="2682.1001" style="stroke-opacity:.99526;fill-rule:evenodd;color:#000000;stroke:#000000;stroke-linecap:round;stroke-width:1.7329;fill:#000000" d="m 42.175902,2682.1001 c 0,3.6995 -3.3323,6.6986 -7.4429,6.6986 -4.110601,0 -7.4429,-2.9991 -7.4429,-6.6986 0,-3.6995 3.332299,-6.6986 7.4429,-6.6986 4.1106,0 7.4429,2.9991 7.4429,6.6986 z" sodipodi:ry="6.6985998" rx="7.4429" ry="6.6986" transform="matrix(1.1471,0,0,1.1481,-5.1099,-398.34)" cy="2682.1" cx="34.733" sodipodi:cx="34.733002"/>
                <ellipse id="path4970" sodipodi:rx="7.4429002" sodipodi:cy="2682.1001" style="stroke-opacity:.99526;fill-rule:evenodd;color:#000000;stroke:#4d4d4d;stroke-linecap:round;stroke-width:1.9888;fill:#4d4d4d" d="m 42.175902,2682.1001 c 0,3.6995 -3.3323,6.6986 -7.4429,6.6986 -4.110601,0 -7.4429,-2.9991 -7.4429,-6.6986 0,-3.6995 3.332299,-6.6986 7.4429,-6.6986 4.1106,0 7.4429,2.9991 7.4429,6.6986 z" sodipodi:ry="6.6985998" rx="7.4429" ry="6.6986" cy="2682.1" cx="34.733" sodipodi:cx="34.733002"/>
              </g>
              <g id="g4972" transform="matrix(.49831 .21399 -.35587 .29964 943.94 1826.2)">
                <ellipse id="path4974" sodipodi:rx="7.4429002" sodipodi:cy="2682.1001" style="stroke-opacity:.99526;fill-rule:evenodd;color:#000000;stroke:#000000;stroke-linecap:round;stroke-width:1.8351;fill:#000000" d="m 42.175902,2682.1001 c 0,3.6995 -3.3323,6.6986 -7.4429,6.6986 -4.110601,0 -7.4429,-2.9991 -7.4429,-6.6986 0,-3.6995 3.332299,-6.6986 7.4429,-6.6986 4.1106,0 7.4429,2.9991 7.4429,6.6986 z" sodipodi:ry="6.6985998" rx="7.4429" ry="6.6986" transform="matrix(1.1471,0,0,1.1481,-5.1099,-398.34)" cy="2682.1" cx="34.733" sodipodi:cx="34.733002"/>
                <ellipse id="path4976" sodipodi:rx="7.4429002" sodipodi:cy="2682.1001" style="stroke-opacity:.99526;fill-rule:evenodd;color:#000000;stroke:#4d4d4d;stroke-linecap:round;stroke-width:2.106;fill:#4d4d4d" d="m 42.175902,2682.1001 c 0,3.6995 -3.3323,6.6986 -7.4429,6.6986 -4.110601,0 -7.4429,-2.9991 -7.4429,-6.6986 0,-3.6995 3.332299,-6.6986 7.4429,-6.6986 4.1106,0 7.4429,2.9991 7.4429,6.6986 z" sodipodi:ry="6.6985998" rx="7.4429" ry="6.6986" cy="2682.1" cx="34.733" sodipodi:cx="34.733002"/>
              </g>
              <g id="g4978" transform="matrix(.45702 .12911 -.26559 .27302 716.21 1894.7)">
                <ellipse id="path4980" sodipodi:rx="7.4429002" sodipodi:cy="2682.1001" style="stroke-opacity:.99526;fill-rule:evenodd;color:#000000;stroke:#000000;stroke-linecap:round;stroke-width:2.1848;fill:#000000" d="m 42.175902,2682.1001 c 0,3.6995 -3.3323,6.6986 -7.4429,6.6986 -4.110601,0 -7.4429,-2.9991 -7.4429,-6.6986 0,-3.6995 3.332299,-6.6986 7.4429,-6.6986 4.1106,0 7.4429,2.9991 7.4429,6.6986 z" sodipodi:ry="6.6985998" rx="7.4429" ry="6.6986" transform="matrix(1.1471,0,0,1.1481,-5.1099,-398.34)" cy="2682.1" cx="34.733" sodipodi:cx="34.733002"/>
                <ellipse id="path4982" sodipodi:rx="7.4429002" sodipodi:cy="2682.1001" style="stroke-opacity:.99526;fill-rule:evenodd;color:#000000;stroke:#4d4d4d;stroke-linecap:round;stroke-width:2.5073;fill:#4d4d4d" d="m 42.175902,2682.1001 c 0,3.6995 -3.3323,6.6986 -7.4429,6.6986 -4.110601,0 -7.4429,-2.9991 -7.4429,-6.6986 0,-3.6995 3.332299,-6.6986 7.4429,-6.6986 4.1106,0 7.4429,2.9991 7.4429,6.6986 z" sodipodi:ry="6.6985998" rx="7.4429" ry="6.6986" cy="2682.1" cx="34.733" sodipodi:cx="34.733002"/>
              </g>
              <g id="g4984" transform="matrix(.48032 .10566 -.27913 .22344 767.54 2027.7)">
                <ellipse id="path4986" sodipodi:rx="7.4429002" sodipodi:cy="2682.1001" style="stroke-opacity:.99526;fill-rule:evenodd;color:#000000;stroke:#000000;stroke-linecap:round;stroke-width:2.3558;fill:#000000" d="m 42.175902,2682.1001 c 0,3.6995 -3.3323,6.6986 -7.4429,6.6986 -4.110601,0 -7.4429,-2.9991 -7.4429,-6.6986 0,-3.6995 3.332299,-6.6986 7.4429,-6.6986 4.1106,0 7.4429,2.9991 7.4429,6.6986 z" sodipodi:ry="6.6985998" rx="7.4429" ry="6.6986" transform="matrix(1.1471,0,0,1.1481,-5.1099,-398.34)" cy="2682.1" cx="34.733" sodipodi:cx="34.733002"/>
                <ellipse id="path4988" sodipodi:rx="7.4429002" sodipodi:cy="2682.1001" style="stroke-opacity:.99526;fill-rule:evenodd;color:#000000;stroke:#4d4d4d;stroke-linecap:round;stroke-width:2.7036;fill:#4d4d4d" d="m 42.175902,2682.1001 c 0,3.6995 -3.3323,6.6986 -7.4429,6.6986 -4.110601,0 -7.4429,-2.9991 -7.4429,-6.6986 0,-3.6995 3.332299,-6.6986 7.4429,-6.6986 4.1106,0 7.4429,2.9991 7.4429,6.6986 z" sodipodi:ry="6.6985998" rx="7.4429" ry="6.6986" cy="2682.1" cx="34.733" sodipodi:cx="34.733002"/>
              </g>
              <g id="g4990" transform="matrix(.46282 .28518 -.39889 .15976 1102.2 2195.5)">
                <ellipse id="path4992" sodipodi:rx="7.4429002" sodipodi:cy="2682.1001" style="stroke-opacity:.99526;fill-rule:evenodd;color:#000000;stroke:#000000;stroke-linecap:round;stroke-width:2.0113;fill:#000000" d="m 42.175902,2682.1001 c 0,3.6995 -3.3323,6.6986 -7.4429,6.6986 -4.110601,0 -7.4429,-2.9991 -7.4429,-6.6986 0,-3.6995 3.332299,-6.6986 7.4429,-6.6986 4.1106,0 7.4429,2.9991 7.4429,6.6986 z" sodipodi:ry="6.6985998" rx="7.4429" ry="6.6986" transform="matrix(1.1471,0,0,1.1481,-5.1099,-398.34)" cy="2682.1" cx="34.733" sodipodi:cx="34.733002"/>
                <ellipse id="path4994" sodipodi:rx="7.4429002" sodipodi:cy="2682.1001" style="stroke-opacity:.99526;fill-rule:evenodd;color:#000000;stroke:#4d4d4d;stroke-linecap:round;stroke-width:2.3082;fill:#4d4d4d" d="m 42.175902,2682.1001 c 0,3.6995 -3.3323,6.6986 -7.4429,6.6986 -4.110601,0 -7.4429,-2.9991 -7.4429,-6.6986 0,-3.6995 3.332299,-6.6986 7.4429,-6.6986 4.1106,0 7.4429,2.9991 7.4429,6.6986 z" sodipodi:ry="6.6985998" rx="7.4429" ry="6.6986" cy="2682.1" cx="34.733" sodipodi:cx="34.733002"/>
              </g>
              <g id="g4996" transform="matrix(.56533 .25327 -.40373 .35464 1123.4 1681.5)">
                <ellipse id="path4998" sodipodi:rx="7.4429002" sodipodi:cy="2682.1001" style="stroke-opacity:.99526;fill-rule:evenodd;color:#000000;stroke:#000000;stroke-linecap:round;stroke-width:1.5837;fill:#000000" d="m 42.175902,2682.1001 c 0,3.6995 -3.3323,6.6986 -7.4429,6.6986 -4.110601,0 -7.4429,-2.9991 -7.4429,-6.6986 0,-3.6995 3.332299,-6.6986 7.4429,-6.6986 4.1106,0 7.4429,2.9991 7.4429,6.6986 z" sodipodi:ry="6.6985998" rx="7.4429" ry="6.6986" transform="matrix(1.1471,0,0,1.1481,-5.1099,-398.34)" cy="2682.1" cx="34.733" sodipodi:cx="34.733002"/>
                <ellipse id="path5000" sodipodi:rx="7.4429002" sodipodi:cy="2682.1001" style="stroke-opacity:.99526;fill-rule:evenodd;color:#000000;stroke:#4d4d4d;stroke-linecap:round;stroke-width:1.8175;fill:#4d4d4d" d="m 42.175902,2682.1001 c 0,3.6995 -3.3323,6.6986 -7.4429,6.6986 -4.110601,0 -7.4429,-2.9991 -7.4429,-6.6986 0,-3.6995 3.332299,-6.6986 7.4429,-6.6986 4.1106,0 7.4429,2.9991 7.4429,6.6986 z" sodipodi:ry="6.6985998" rx="7.4429" ry="6.6986" cy="2682.1" cx="34.733" sodipodi:cx="34.733002"/>
              </g>
              <ellipse id="path5002" sodipodi:rx="21.544001" sodipodi:cy="2652.6001" style="stroke-opacity:.99526;color:#000000;stroke:#ffffff;stroke-linecap:round;stroke-width:1.0299;fill:none" d="m 46.555,2652.6001 c 0,10.394 -9.645577,18.82 -21.544,18.82 -11.898423,0 -21.5440009,-8.426 -21.5440009,-18.82 0,-10.394 9.6455779,-18.82 21.5440009,-18.82 11.898423,0 21.544,8.426 21.544,18.82 z" sodipodi:ry="18.82" rx="21.544" ry="18.82" transform="matrix(1.046 0 0 .90132 5.7839 261.4)" cy="2652.6" cx="25.011" sodipodi:cx="25.011"/>
              <ellipse id="path5004" sodipodi:rx="21.544001" sodipodi:cy="2652.6001" style="stroke-opacity:.99526;color:#000000;stroke:#ffffff;stroke-linecap:round;stroke-width:.92507;fill:none" d="m 46.555,2652.6001 c 0,10.394 -9.645577,18.82 -21.544,18.82 -11.898423,0 -21.5440009,-8.426 -21.5440009,-18.82 0,-10.394 9.6455779,-18.82 21.5440009,-18.82 11.898423,0 21.544,8.426 21.544,18.82 z" sodipodi:ry="18.82" rx="21.544" ry="18.82" transform="matrix(1.1609,0,0,1.0066,3.1567,-17.08)" cy="2652.6" cx="25.011" sodipodi:cx="25.011"/>
              <path id="path5006" d="m22.783 2654.8c5.7782 0.9289 11.556 2.738 17.335-0.7429l0.99055-1.2382 0.26831-2.04c-5.8491-9.0337-12.306-12.433-19.584 1.5447z" sodipodi:nodetypes="cccccc" style="stroke:#b3b3b3;stroke-width:1px;fill:#cccccc" inkscape:connector-curvature="0"/>
              <text id="text5025" style="font-size:10.227px;letter-spacing:0px;word-spacing:0px;font-family:Tw Cen MT;line-height:125%;fill:#ffffff" sodipodi:linespacing="125%" transform="scale(1.0756 .92973)" xml:space="preserve" y="2869.3706" x="28.549269">                 <tspan id="tspan5027" y="2869.3706" x="28.549269" sodipodi:role="line">0</tspan>               </text>
              <text id="text5029" style="font-size:9.4246px;letter-spacing:0px;word-spacing:0px;font-family:Tw Cen MT;line-height:125%;fill:#ffffff" sodipodi:linespacing="125%" transform="scale(1.1672 .85678)" xml:space="preserve" y="3112.3098" x="18.883207">                 <tspan id="tspan5031" y="3112.3098" x="18.883207" sodipodi:role="line">9</tspan>               </text>
              <text id="text5033" style="font-size:10.023px;letter-spacing:0px;word-spacing:0px;font-family:Tw Cen MT;line-height:125%;fill:#ffffff" sodipodi:linespacing="125%" transform="scale(1.0975 .91118)" xml:space="preserve" y="2923.7197" x="13.764167">                 <tspan id="tspan5035" y="2923.7197" x="13.764167" sodipodi:role="line">8</tspan>               </text>
              <text id="text5037" style="font-size:10.214px;letter-spacing:0px;word-spacing:0px;font-family:Tw Cen MT;line-height:125%;fill:#ffffff" sodipodi:linespacing="125%" transform="scale(1.0769 .92858)" xml:space="preserve" y="2861.7212" x="10.347866">                 <tspan id="tspan5039" y="2861.7212" x="10.347866" sodipodi:role="line">7</tspan>               </text>
              <text id="text5041" style="font-size:10.044px;letter-spacing:0px;word-spacing:0px;font-family:Tw Cen MT;line-height:125%;fill:#ffffff" sodipodi:linespacing="125%" transform="scale(1.0952 .91306)" xml:space="preserve" y="2902.5129" x="11.079274">                 <tspan id="tspan5043" y="2902.5129" x="11.079274" sodipodi:role="line">6</tspan>               </text>
              <text id="text5045" style="font-size:9.7767px;letter-spacing:0px;word-spacing:0px;font-family:Tw Cen MT;line-height:125%;fill:#ffffff" sodipodi:linespacing="125%" transform="scale(1.1251 .88879)" xml:space="preserve" y="2975.6345" x="14.746605">                 <tspan id="tspan5047" y="2975.6345" x="14.746605" sodipodi:role="line">5</tspan>               </text>
              <text id="text5049" style="font-size:9.5529px;letter-spacing:0px;word-spacing:0px;font-family:Tw Cen MT;line-height:125%;fill:#ffffff" sodipodi:linespacing="125%" transform="scale(1.1515 .86844)" xml:space="preserve" y="3041.3064" x="20.215633">                 <tspan id="tspan5051" y="3041.3064" x="20.215633" sodipodi:role="line">4</tspan>               </text>
              <text id="text5053" style="font-size:9.1666px;letter-spacing:0px;word-spacing:0px;font-family:Tw Cen MT;line-height:125%;fill:#ffffff" sodipodi:linespacing="125%" transform="scale(1.2 .83333)" xml:space="preserve" y="3169.2434" x="25.795523">                 <tspan id="tspan5055" y="3169.2434" x="25.795523" sodipodi:role="line">3</tspan>               </text>
              <text id="text5057" style="font-size:9.1036px;letter-spacing:0px;word-spacing:0px;font-family:Tw Cen MT;line-height:125%;fill:#ffffff" sodipodi:linespacing="125%" transform="scale(1.2083 .8276)" xml:space="preserve" y="3193.7871" x="31.766623">                 <tspan id="tspan5059" y="3193.7871" x="31.766623" sodipodi:role="line">2</tspan>               </text>
              <text id="text5061" style="font-size:9.7285px;letter-spacing:0px;word-spacing:0px;font-family:Tw Cen MT;line-height:125%;fill:#ffffff" sodipodi:linespacing="125%" transform="scale(1.1307 .88441)" xml:space="preserve" y="2994.532" x="39.860367">                 <tspan id="tspan5063" y="2994.532" x="39.860367" sodipodi:role="line">1</tspan>               </text>
            </g>
            <path id="path5120" inkscape:connector-curvature="0" sodipodi:nodetypes="ccscsccssccccc" style="stroke:#999999;stroke-width:1px;fill:#b3b3b3" d="m47.546 2692.2-0.99055-3.4669s2.2287 0.4952 3.4669-1.7335 1.7335-0.9905-0.99055-3.9622c-2.724-2.9716-3.9622-2.4764-3.7146-6.6862 0.24764-4.2098 0.24764-6.1909 0.24764-6.1909l1.0702 0.1975c0 1.3831-1.0702-1.9888 0.6633 1.0406 2.6061 4.5545 6.6862 7.4292 8.1721 8.1721 1.4858 0.7429 3.4669 1.7335 3.4669 1.7335l-0.99055 6.4385-8.1721 3.467h-0.99055z"/>
          </g>
          <path id="path4284" d="m56.45 2725.9c-0.59421-1.7826-45.16-0.5942-46.645 0-1.4855 0.5942-0.2971 5.942-0.2971 5.942s-0.2971 8.616 0 11.29 45.457 0.2972 45.457 0.2972 0.2679-2.7364 0.2971-0.5942c0.07682 5.6348 1.1884-16.935 1.1884-16.935z" sodipodi:nodetypes="cscscsc" style="stroke:#000000;stroke-width:1px;fill:#1a1a1a" inkscape:connector-curvature="0"/>
          <path id="path4276" d="m16.638 2729.5v7.4276l-1.7826 2.971v1.7827l35.95 0.5942v-2.674l-1.1884-0.8913 0.59421-10.102z" sodipodi:nodetypes="ccccccccc" style="stroke:#000000;stroke-width:1px;fill:#ffffff" inkscape:connector-curvature="0"/>
          <path id="path4280" d="m56.45 2726.8c-3.7842-0.8545 3.0836 0.2971-1.7826 0.2971-0.24476 0-0.92432-0.4622-1.1884-0.5942-2.4053-1.2027-8.8836 1.2031-11.29 0-3.2331-1.6166-11.823-0.4166-14.855 0.5942-2.9452 0.9817-5.2861-1.8032-8.0218-0.8913-0.70639 0.2354-7.0509 1.2149-7.1305 1.1884-1.1741-0.3914-1.1318-1.4855-2.6739-1.4855h1.7826c1.2926 0 2.39 0.2971 3.5652 0.2971 4.2776 0 8.4412 0.2971 12.775 0.2971 3.3634 0 6.7184-0.1598 9.8044-1.1884 2.3847-0.7949 8.5668 0.8913 10.993 0.8913 0.86839 0 0.23409-0.2656 0.89131-0.5942 0.51016-0.2551 5.3515-0.8877 5.9421-0.2971 0.4484 0.4484 0.79228 0.9903 1.1884 1.4855z" style="opacity:.78138;color:#000000;fill:none" inkscape:connector-curvature="0"/>
          <path id="path4282" d="m55.855 2727.6c-0.17462-0.2076 0.38709-0.9898-0.2971-1.135-0.70873-0.1504-3.8917-0.3091-4.7537-0.1261-3.0783 0.6533-2.9641 0.064-5.645-0.5045-1.0876-0.2309-10.857 0-12.775 0-3.034 0-15.858-0.1656-17.826 0.2522-0.31691 0.067-0.8715-0.067-1.1884 0-0.36128 0.077-1.9485 0.6453-2.0797 0.7567-0.76899 0.6529 8.3633 0.5045 9.8044 0.5045 3.5587 0 7.3325 0.2522 10.993 0.2522 3.2022 0 6.4757 0.1261 9.5073 0.1261 4.1671 0 10.466 0.5182 14.261-0.1261z" style="opacity:.57895;color:#000000;fill-rule:evenodd;filter:url(#filter5086);fill:#ffffff" inkscape:connector-curvature="0"/>
        </g>
        <g id="g5685">
          <g id="g5220" transform="translate(-335.13,-65.282)">
            <ellipse id="path5222" sodipodi:rx="14.485" sodipodi:cy="2841.2" style="color:#000000;stroke:#000000;stroke-width:7.6339;fill:none" d="m -145.885,2841.2 c 0,6.8566 -6.48515,12.415 -14.485,12.415 -7.99984,0 -14.48499,-5.5584 -14.48499,-12.415 0,-6.8567 6.48515,-12.415 14.48499,-12.415 7.99985,0 14.485,5.5583 14.485,12.415 z" sodipodi:ry="12.415" rx="14.485" ry="12.415" transform="matrix(.59568 0 0 .58333 262.1 1209.7)" cy="2841.2" cx="-160.37" sodipodi:cx="-160.37"/>
            <path id="path5224" d="m160.46 2860.4c0.46879 0.2621 1.4691 0.3072 3.2566-1.4803 0.70796-0.708 11.453-0.4049 9.7699 2.9605-0.16384 0.3277-2.3841 0.5765-2.6645 0.2961-0.36059-0.3606-0.13868-0.6614-0.59211-0.8882-1.5422-0.7711-9.0448 0.8138-9.1778 0.5921-0.27342-0.4557-0.39474-0.9868-0.59211-1.4802z" style="color:#000000;stroke-width:0;fill:#ffffff" inkscape:connector-curvature="0"/>
          </g>
          <g id="g5226" transform="translate(-334.29,-60.261)">
            <ellipse id="path5228" sodipodi:rx="14.485" sodipodi:cy="2841.2" style="color:#000000;stroke:#000000;stroke-width:7.6339;fill:none" d="m -145.885,2841.2 c 0,6.8566 -6.48515,12.415 -14.485,12.415 -7.99984,0 -14.48499,-5.5584 -14.48499,-12.415 0,-6.8567 6.48515,-12.415 14.48499,-12.415 7.99985,0 14.485,5.5583 14.485,12.415 z" sodipodi:ry="12.415" rx="14.485" ry="12.415" transform="matrix(.59568 0 0 .58333 262.1 1209.7)" cy="2841.2" cx="-160.37" sodipodi:cx="-160.37"/>
            <path id="path5230" d="m160.46 2860.4c0.46879 0.2621 1.4691 0.3072 3.2566-1.4803 0.70796-0.708 11.453-0.4049 9.7699 2.9605-0.16384 0.3277-2.3841 0.5765-2.6645 0.2961-0.36059-0.3606-0.13868-0.6614-0.59211-0.8882-1.5422-0.7711-9.0448 0.8138-9.1778 0.5921-0.27342-0.4557-0.39474-0.9868-0.59211-1.4802z" style="color:#000000;stroke-width:0;fill:#ffffff" inkscape:connector-curvature="0"/>
          </g>
          <g id="g5232" transform="translate(-332.62,-57.751)">
            <ellipse id="path5234" sodipodi:rx="14.485" sodipodi:cy="2841.2" style="color:#000000;stroke:#000000;stroke-width:7.6339;fill:none" d="m -145.885,2841.2 c 0,6.8566 -6.48515,12.415 -14.485,12.415 -7.99984,0 -14.48499,-5.5584 -14.48499,-12.415 0,-6.8567 6.48515,-12.415 14.48499,-12.415 7.99985,0 14.485,5.5583 14.485,12.415 z" sodipodi:ry="12.415" rx="14.485" ry="12.415" transform="matrix(.59568 0 0 .58333 262.1 1209.7)" cy="2841.2" cx="-160.37" sodipodi:cx="-160.37"/>
            <path id="path5236" d="m160.46 2860.4c0.46879 0.2621 1.4691 0.3072 3.2566-1.4803 0.70796-0.708 11.453-0.4049 9.7699 2.9605-0.16384 0.3277-2.3841 0.5765-2.6645 0.2961-0.36059-0.3606-0.13868-0.6614-0.59211-0.8882-1.5422-0.7711-9.0448 0.8138-9.1778 0.5921-0.27342-0.4557-0.39474-0.9868-0.59211-1.4802z" style="color:#000000;stroke-width:0;fill:#ffffff" inkscape:connector-curvature="0"/>
          </g>
          <g id="g5238" transform="translate(-333.45,-50.638)">
            <ellipse id="path5240" sodipodi:rx="14.485" sodipodi:cy="2841.2" style="color:#000000;stroke:#000000;stroke-width:7.6339;fill:none" d="m -145.885,2841.2 c 0,6.8566 -6.48515,12.415 -14.485,12.415 -7.99984,0 -14.48499,-5.5584 -14.48499,-12.415 0,-6.8567 6.48515,-12.415 14.48499,-12.415 7.99985,0 14.485,5.5583 14.485,12.415 z" sodipodi:ry="12.415" rx="14.485" ry="12.415" transform="matrix(.59568 0 0 .58333 262.1 1209.7)" cy="2841.2" cx="-160.37" sodipodi:cx="-160.37"/>
            <path id="path5242" d="m160.46 2860.4c0.46879 0.2621 1.4691 0.3072 3.2566-1.4803 0.70796-0.708 11.453-0.4049 9.7699 2.9605-0.16384 0.3277-2.3841 0.5765-2.6645 0.2961-0.36059-0.3606-0.13868-0.6614-0.59211-0.8882-1.5422-0.7711-9.0448 0.8138-9.1778 0.5921-0.27342-0.4557-0.39474-0.9868-0.59211-1.4802z" style="color:#000000;stroke-width:0;fill:#ffffff" inkscape:connector-curvature="0"/>
          </g>
          <g id="g5244" transform="translate(-337.22,-45.198)">
            <ellipse id="path5246" sodipodi:rx="14.485" sodipodi:cy="2841.2" style="color:#000000;stroke:#000000;stroke-width:7.6339;fill:none" d="m -145.885,2841.2 c 0,6.8566 -6.48515,12.415 -14.485,12.415 -7.99984,0 -14.48499,-5.5584 -14.48499,-12.415 0,-6.8567 6.48515,-12.415 14.48499,-12.415 7.99985,0 14.485,5.5583 14.485,12.415 z" sodipodi:ry="12.415" rx="14.485" ry="12.415" transform="matrix(.59568 0 0 .58333 262.1 1209.7)" cy="2841.2" cx="-160.37" sodipodi:cx="-160.37"/>
            <path id="path5248" d="m160.46 2860.4c0.46879 0.2621 1.4691 0.3072 3.2566-1.4803 0.70796-0.708 11.453-0.4049 9.7699 2.9605-0.16384 0.3277-2.3841 0.5765-2.6645 0.2961-0.36059-0.3606-0.13868-0.6614-0.59211-0.8882-1.5422-0.7711-9.0448 0.8138-9.1778 0.5921-0.27342-0.4557-0.39474-0.9868-0.59211-1.4802z" style="color:#000000;stroke-width:0;fill:#ffffff" inkscape:connector-curvature="0"/>
          </g>
          <g id="g5250" transform="translate(-339.73,-37.667)">
            <ellipse id="path5252" sodipodi:rx="14.485" sodipodi:cy="2841.2" style="color:#000000;stroke:#000000;stroke-width:7.6339;fill:none" d="m -145.885,2841.2 c 0,6.8566 -6.48515,12.415 -14.485,12.415 -7.99984,0 -14.48499,-5.5584 -14.48499,-12.415 0,-6.8567 6.48515,-12.415 14.48499,-12.415 7.99985,0 14.485,5.5583 14.485,12.415 z" sodipodi:ry="12.415" rx="14.485" ry="12.415" transform="matrix(.59568 0 0 .58333 262.1 1209.7)" cy="2841.2" cx="-160.37" sodipodi:cx="-160.37"/>
            <path id="path5254" d="m160.46 2860.4c0.46879 0.2621 1.4691 0.3072 3.2566-1.4803 0.70796-0.708 11.453-0.4049 9.7699 2.9605-0.16384 0.3277-2.3841 0.5765-2.6645 0.2961-0.36059-0.3606-0.13868-0.6614-0.59211-0.8882-1.5422-0.7711-9.0448 0.8138-9.1778 0.5921-0.27342-0.4557-0.39474-0.9868-0.59211-1.4802z" style="color:#000000;stroke-width:0;fill:#ffffff" inkscape:connector-curvature="0"/>
          </g>
          <g id="g5256" transform="translate(-341.82,-29.717)">
            <ellipse id="path5258" sodipodi:rx="14.485" sodipodi:cy="2841.2" style="color:#000000;stroke:#000000;stroke-width:7.6339;fill:none" d="m -145.885,2841.2 c 0,6.8566 -6.48515,12.415 -14.485,12.415 -7.99984,0 -14.48499,-5.5584 -14.48499,-12.415 0,-6.8567 6.48515,-12.415 14.48499,-12.415 7.99985,0 14.485,5.5583 14.485,12.415 z" sodipodi:ry="12.415" rx="14.485" ry="12.415" transform="matrix(.59568 0 0 .58333 262.1 1209.7)" cy="2841.2" cx="-160.37" sodipodi:cx="-160.37"/>
            <path id="path5260" d="m160.46 2860.4c0.46879 0.2621 1.4691 0.3072 3.2566-1.4803 0.70796-0.708 11.453-0.4049 9.7699 2.9605-0.16384 0.3277-2.3841 0.5765-2.6645 0.2961-0.36059-0.3606-0.13868-0.6614-0.59211-0.8882-1.5422-0.7711-9.0448 0.8138-9.1778 0.5921-0.27342-0.4557-0.39474-0.9868-0.59211-1.4802z" style="color:#000000;stroke-width:0;fill:#ffffff" inkscape:connector-curvature="0"/>
          </g>
          <g id="g5262" transform="translate(-342.66,-24.278)">
            <ellipse id="path5264" sodipodi:rx="14.485" sodipodi:cy="2841.2" style="color:#000000;stroke:#000000;stroke-width:7.6339;fill:none" d="m -145.885,2841.2 c 0,6.8566 -6.48515,12.415 -14.485,12.415 -7.99984,0 -14.48499,-5.5584 -14.48499,-12.415 0,-6.8567 6.48515,-12.415 14.48499,-12.415 7.99985,0 14.485,5.5583 14.485,12.415 z" sodipodi:ry="12.415" rx="14.485" ry="12.415" transform="matrix(.59568 0 0 .58333 262.1 1209.7)" cy="2841.2" cx="-160.37" sodipodi:cx="-160.37"/>
            <path id="path5266" d="m160.46 2860.4c0.46879 0.2621 1.4691 0.3072 3.2566-1.4803 0.70796-0.708 11.453-0.4049 9.7699 2.9605-0.16384 0.3277-2.3841 0.5765-2.6645 0.2961-0.36059-0.3606-0.13868-0.6614-0.59211-0.8882-1.5422-0.7711-9.0448 0.8138-9.1778 0.5921-0.27342-0.4557-0.39474-0.9868-0.59211-1.4802z" style="color:#000000;stroke-width:0;fill:#ffffff" inkscape:connector-curvature="0"/>
          </g>
          <g id="g5268" transform="translate(-342.24,-18.002)">
            <ellipse id="path5270" sodipodi:rx="14.485" sodipodi:cy="2841.2" style="color:#000000;stroke:#000000;stroke-width:7.6339;fill:none" d="m -145.885,2841.2 c 0,6.8566 -6.48515,12.415 -14.485,12.415 -7.99984,0 -14.48499,-5.5584 -14.48499,-12.415 0,-6.8567 6.48515,-12.415 14.48499,-12.415 7.99985,0 14.485,5.5583 14.485,12.415 z" sodipodi:ry="12.415" rx="14.485" ry="12.415" transform="matrix(.59568 0 0 .58333 262.1 1209.7)" cy="2841.2" cx="-160.37" sodipodi:cx="-160.37"/>
            <path id="path5272" d="m160.46 2860.4c0.46879 0.2621 1.4691 0.3072 3.2566-1.4803 0.70796-0.708 11.453-0.4049 9.7699 2.9605-0.16384 0.3277-2.3841 0.5765-2.6645 0.2961-0.36059-0.3606-0.13868-0.6614-0.59211-0.8882-1.5422-0.7711-9.0448 0.8138-9.1778 0.5921-0.27342-0.4557-0.39474-0.9868-0.59211-1.4802z" style="color:#000000;stroke-width:0;fill:#ffffff" inkscape:connector-curvature="0"/>
          </g>
          <g id="g5274" transform="translate(-343.5,-10.889)">
            <ellipse id="path5276" sodipodi:rx="14.485" sodipodi:cy="2841.2" style="color:#000000;stroke:#000000;stroke-width:7.6339;fill:none" d="m -145.885,2841.2 c 0,6.8566 -6.48515,12.415 -14.485,12.415 -7.99984,0 -14.48499,-5.5584 -14.48499,-12.415 0,-6.8567 6.48515,-12.415 14.48499,-12.415 7.99985,0 14.485,5.5583 14.485,12.415 z" sodipodi:ry="12.415" rx="14.485" ry="12.415" transform="matrix(.59568 0 0 .58333 262.1 1209.7)" cy="2841.2" cx="-160.37" sodipodi:cx="-160.37"/>
            <path id="path5278" d="m160.46 2860.4c0.46879 0.2621 1.4691 0.3072 3.2566-1.4803 0.70796-0.708 11.453-0.4049 9.7699 2.9605-0.16384 0.3277-2.3841 0.5765-2.6645 0.2961-0.36059-0.3606-0.13868-0.6614-0.59211-0.8882-1.5422-0.7711-9.0448 0.8138-9.1778 0.5921-0.27342-0.4557-0.39474-0.9868-0.59211-1.4802z" style="color:#000000;stroke-width:0;fill:#ffffff" inkscape:connector-curvature="0"/>
          </g>
          <g id="g5280" transform="translate(-346.01 -.84741)">
            <ellipse id="path5282" sodipodi:rx="14.485" sodipodi:cy="2841.2" style="color:#000000;stroke:#000000;stroke-width:7.6339;fill:none" d="m -145.885,2841.2 c 0,6.8566 -6.48515,12.415 -14.485,12.415 -7.99984,0 -14.48499,-5.5584 -14.48499,-12.415 0,-6.8567 6.48515,-12.415 14.48499,-12.415 7.99985,0 14.485,5.5583 14.485,12.415 z" sodipodi:ry="12.415" rx="14.485" ry="12.415" transform="matrix(.59568 0 0 .58333 262.1 1209.7)" cy="2841.2" cx="-160.37" sodipodi:cx="-160.37"/>
            <path id="path5284" d="m160.46 2860.4c0.46879 0.2621 1.4691 0.3072 3.2566-1.4803 0.70796-0.708 11.453-0.4049 9.7699 2.9605-0.16384 0.3277-2.3841 0.5765-2.6645 0.2961-0.36059-0.3606-0.13868-0.6614-0.59211-0.8882-1.5422-0.7711-9.0448 0.8138-9.1778 0.5921-0.27342-0.4557-0.39474-0.9868-0.59211-1.4802z" style="color:#000000;stroke-width:0;fill:#ffffff" inkscape:connector-curvature="0"/>
          </g>
          <g id="g5286" transform="translate(-347.68,8.7759)">
            <ellipse id="path5288" sodipodi:rx="14.485" sodipodi:cy="2841.2" style="color:#000000;stroke:#000000;stroke-width:7.6339;fill:none" d="m -145.885,2841.2 c 0,6.8566 -6.48515,12.415 -14.485,12.415 -7.99984,0 -14.48499,-5.5584 -14.48499,-12.415 0,-6.8567 6.48515,-12.415 14.48499,-12.415 7.99985,0 14.485,5.5583 14.485,12.415 z" sodipodi:ry="12.415" rx="14.485" ry="12.415" transform="matrix(.59568 0 0 .58333 262.1 1209.7)" cy="2841.2" cx="-160.37" sodipodi:cx="-160.37"/>
            <path id="path5290" d="m160.46 2860.4c0.46879 0.2621 1.4691 0.3072 3.2566-1.4803 0.70796-0.708 11.453-0.4049 9.7699 2.9605-0.16384 0.3277-2.3841 0.5765-2.6645 0.2961-0.36059-0.3606-0.13868-0.6614-0.59211-0.8882-1.5422-0.7711-9.0448 0.8138-9.1778 0.5921-0.27342-0.4557-0.39474-0.9868-0.59211-1.4802z" style="color:#000000;stroke-width:0;fill:#ffffff" inkscape:connector-curvature="0"/>
          </g>
          <g id="g5292" transform="translate(-350.61,16.726)">
            <ellipse id="path5294" sodipodi:rx="14.485" sodipodi:cy="2841.2" style="color:#000000;stroke:#000000;stroke-width:7.6339;fill:none" d="m -145.885,2841.2 c 0,6.8566 -6.48515,12.415 -14.485,12.415 -7.99984,0 -14.48499,-5.5584 -14.48499,-12.415 0,-6.8567 6.48515,-12.415 14.48499,-12.415 7.99985,0 14.485,5.5583 14.485,12.415 z" sodipodi:ry="12.415" rx="14.485" ry="12.415" transform="matrix(.59568 0 0 .58333 262.1 1209.7)" cy="2841.2" cx="-160.37" sodipodi:cx="-160.37"/>
            <path id="path5296" d="m160.46 2860.4c0.46879 0.2621 1.4691 0.3072 3.2566-1.4803 0.70796-0.708 11.453-0.4049 9.7699 2.9605-0.16384 0.3277-2.3841 0.5765-2.6645 0.2961-0.36059-0.3606-0.13868-0.6614-0.59211-0.8882-1.5422-0.7711-9.0448 0.8138-9.1778 0.5921-0.27342-0.4557-0.39474-0.9868-0.59211-1.4802z" style="color:#000000;stroke-width:0;fill:#ffffff" inkscape:connector-curvature="0"/>
          </g>
          <g id="g5298" transform="translate(-355.21,23.42)">
            <ellipse id="path5300" sodipodi:rx="14.485" sodipodi:cy="2841.2" style="color:#000000;stroke:#000000;stroke-width:7.6339;fill:none" d="m -145.885,2841.2 c 0,6.8566 -6.48515,12.415 -14.485,12.415 -7.99984,0 -14.48499,-5.5584 -14.48499,-12.415 0,-6.8567 6.48515,-12.415 14.48499,-12.415 7.99985,0 14.485,5.5583 14.485,12.415 z" sodipodi:ry="12.415" rx="14.485" ry="12.415" transform="matrix(.59568 0 0 .58333 262.1 1209.7)" cy="2841.2" cx="-160.37" sodipodi:cx="-160.37"/>
            <path id="path5302" d="m160.46 2860.4c0.46879 0.2621 1.4691 0.3072 3.2566-1.4803 0.70796-0.708 11.453-0.4049 9.7699 2.9605-0.16384 0.3277-2.3841 0.5765-2.6645 0.2961-0.36059-0.3606-0.13868-0.6614-0.59211-0.8882-1.5422-0.7711-9.0448 0.8138-9.1778 0.5921-0.27342-0.4557-0.39474-0.9868-0.59211-1.4802z" style="color:#000000;stroke-width:0;fill:#ffffff" inkscape:connector-curvature="0"/>
          </g>
          <g id="g5304" transform="translate(-358.98,29.696)">
            <ellipse id="path5306" sodipodi:rx="14.485" sodipodi:cy="2841.2" style="color:#000000;stroke:#000000;stroke-width:7.6339;fill:none" d="m -145.885,2841.2 c 0,6.8566 -6.48515,12.415 -14.485,12.415 -7.99984,0 -14.48499,-5.5584 -14.48499,-12.415 0,-6.8567 6.48515,-12.415 14.48499,-12.415 7.99985,0 14.485,5.5583 14.485,12.415 z" sodipodi:ry="12.415" rx="14.485" ry="12.415" transform="matrix(.59568 0 0 .58333 262.1 1209.7)" cy="2841.2" cx="-160.37" sodipodi:cx="-160.37"/>
            <path id="path5308" d="m160.46 2860.4c0.46879 0.2621 1.4691 0.3072 3.2566-1.4803 0.70796-0.708 11.453-0.4049 9.7699 2.9605-0.16384 0.3277-2.3841 0.5765-2.6645 0.2961-0.36059-0.3606-0.13868-0.6614-0.59211-0.8882-1.5422-0.7711-9.0448 0.8138-9.1778 0.5921-0.27342-0.4557-0.39474-0.9868-0.59211-1.4802z" style="color:#000000;stroke-width:0;fill:#ffffff" inkscape:connector-curvature="0"/>
          </g>
          <g id="g5310" transform="translate(-367.76,35.554)">
            <ellipse id="path5312" sodipodi:rx="14.485" sodipodi:cy="2841.2" style="color:#000000;stroke:#000000;stroke-width:7.6339;fill:none" d="m -145.885,2841.2 c 0,6.8566 -6.48515,12.415 -14.485,12.415 -7.99984,0 -14.48499,-5.5584 -14.48499,-12.415 0,-6.8567 6.48515,-12.415 14.48499,-12.415 7.99985,0 14.485,5.5583 14.485,12.415 z" sodipodi:ry="12.415" rx="14.485" ry="12.415" transform="matrix(.59568 0 0 .58333 262.1 1209.7)" cy="2841.2" cx="-160.37" sodipodi:cx="-160.37"/>
            <path id="path5314" d="m160.46 2860.4c0.46879 0.2621 1.4691 0.3072 3.2566-1.4803 0.70796-0.708 11.453-0.4049 9.7699 2.9605-0.16384 0.3277-2.3841 0.5765-2.6645 0.2961-0.36059-0.3606-0.13868-0.6614-0.59211-0.8882-1.5422-0.7711-9.0448 0.8138-9.1778 0.5921-0.27342-0.4557-0.39474-0.9868-0.59211-1.4802z" style="color:#000000;stroke-width:0;fill:#ffffff" inkscape:connector-curvature="0"/>
          </g>
          <g id="g5316" transform="translate(-377.81,40.156)">
            <ellipse id="path5318" sodipodi:rx="14.485" sodipodi:cy="2841.2" style="color:#000000;stroke:#000000;stroke-width:7.6339;fill:none" d="m -145.885,2841.2 c 0,6.8566 -6.48515,12.415 -14.485,12.415 -7.99984,0 -14.48499,-5.5584 -14.48499,-12.415 0,-6.8567 6.48515,-12.415 14.48499,-12.415 7.99985,0 14.485,5.5583 14.485,12.415 z" sodipodi:ry="12.415" rx="14.485" ry="12.415" transform="matrix(.59568 0 0 .58333 262.1 1209.7)" cy="2841.2" cx="-160.37" sodipodi:cx="-160.37"/>
            <path id="path5320" d="m160.46 2860.4c0.46879 0.2621 1.4691 0.3072 3.2566-1.4803 0.70796-0.708 11.453-0.4049 9.7699 2.9605-0.16384 0.3277-2.3841 0.5765-2.6645 0.2961-0.36059-0.3606-0.13868-0.6614-0.59211-0.8882-1.5422-0.7711-9.0448 0.8138-9.1778 0.5921-0.27342-0.4557-0.39474-0.9868-0.59211-1.4802z" style="color:#000000;stroke-width:0;fill:#ffffff" inkscape:connector-curvature="0"/>
          </g>
          <g id="g5322" transform="matrix(.40469 0 0 1 -296.01 40.156)">
            <ellipse id="path5324" sodipodi:rx="14.485" sodipodi:cy="2841.2" style="color:#000000;stroke:#000000;stroke-width:12;fill:none" d="m -145.885,2841.2 c 0,6.8566 -6.48515,12.415 -14.485,12.415 -7.99984,0 -14.48499,-5.5584 -14.48499,-12.415 0,-6.8567 6.48515,-12.415 14.48499,-12.415 7.99985,0 14.485,5.5583 14.485,12.415 z" sodipodi:ry="12.415" rx="14.485" ry="12.415" transform="matrix(.59568 0 0 .58333 262.1 1209.7)" cy="2841.2" cx="-160.37" sodipodi:cx="-160.37"/>
            <path id="path5326" d="m160.46 2860.4c0.46879 0.2621 1.4691 0.3072 3.2566-1.4803 0.70796-0.708 11.453-0.4049 9.7699 2.9605-0.16384 0.3277-2.3841 0.5765-2.6645 0.2961-0.36059-0.3606-0.13868-0.6614-0.59211-0.8882-1.5422-0.7711-9.0448 0.8138-9.1778 0.5921-0.27342-0.4557-0.39474-0.9868-0.59211-1.4802z" style="color:#000000;stroke-width:0;fill:#ffffff" inkscape:connector-curvature="0"/>
          </g>
          <g id="g5328" transform="matrix(.40469 0 0 1 -307.3 40.575)">
            <ellipse id="path5330" sodipodi:rx="14.485" sodipodi:cy="2841.2" style="color:#000000;stroke:#000000;stroke-width:12;fill:none" d="m -145.885,2841.2 c 0,6.8566 -6.48515,12.415 -14.485,12.415 -7.99984,0 -14.48499,-5.5584 -14.48499,-12.415 0,-6.8567 6.48515,-12.415 14.48499,-12.415 7.99985,0 14.485,5.5583 14.485,12.415 z" sodipodi:ry="12.415" rx="14.485" ry="12.415" transform="matrix(.59568 0 0 .58333 262.1 1209.7)" cy="2841.2" cx="-160.37" sodipodi:cx="-160.37"/>
            <path id="path5332" d="m160.46 2860.4c0.46879 0.2621 1.4691 0.3072 3.2566-1.4803 0.70796-0.708 11.453-0.4049 9.7699 2.9605-0.16384 0.3277-2.3841 0.5765-2.6645 0.2961-0.36059-0.3606-0.13868-0.6614-0.59211-0.8882-1.5422-0.7711-9.0448 0.8138-9.1778 0.5921-0.27342-0.4557-0.39474-0.9868-0.59211-1.4802z" style="color:#000000;stroke-width:0;fill:#ffffff" inkscape:connector-curvature="0"/>
          </g>
          <g id="g5334" transform="matrix(.40469 0 0 1 -319.86 41.412)">
            <ellipse id="path5336" sodipodi:rx="14.485" sodipodi:cy="2841.2" style="color:#000000;stroke:#000000;stroke-width:12;fill:none" d="m -145.885,2841.2 c 0,6.8566 -6.48515,12.415 -14.485,12.415 -7.99984,0 -14.48499,-5.5584 -14.48499,-12.415 0,-6.8567 6.48515,-12.415 14.48499,-12.415 7.99985,0 14.485,5.5583 14.485,12.415 z" sodipodi:ry="12.415" rx="14.485" ry="12.415" transform="matrix(.59568 0 0 .58333 262.1 1209.7)" cy="2841.2" cx="-160.37" sodipodi:cx="-160.37"/>
            <path id="path5338" d="m160.46 2860.4c0.46879 0.2621 1.4691 0.3072 3.2566-1.4803 0.70796-0.708 11.453-0.4049 9.7699 2.9605-0.16384 0.3277-2.3841 0.5765-2.6645 0.2961-0.36059-0.3606-0.13868-0.6614-0.59211-0.8882-1.5422-0.7711-9.0448 0.8138-9.1778 0.5921-0.27342-0.4557-0.39474-0.9868-0.59211-1.4802z" style="color:#000000;stroke-width:0;fill:#ffffff" inkscape:connector-curvature="0"/>
          </g>
          <g id="g5340" transform="matrix(.40469 0 0 1 -331.99 40.993)">
            <ellipse id="path5342" sodipodi:rx="14.485" sodipodi:cy="2841.2" style="color:#000000;stroke:#000000;stroke-width:12;fill:none" d="m -145.885,2841.2 c 0,6.8566 -6.48515,12.415 -14.485,12.415 -7.99984,0 -14.48499,-5.5584 -14.48499,-12.415 0,-6.8567 6.48515,-12.415 14.48499,-12.415 7.99985,0 14.485,5.5583 14.485,12.415 z" sodipodi:ry="12.415" rx="14.485" ry="12.415" transform="matrix(.59568 0 0 .58333 262.1 1209.7)" cy="2841.2" cx="-160.37" sodipodi:cx="-160.37"/>
            <path id="path5344" d="m160.46 2860.4c0.46879 0.2621 1.4691 0.3072 3.2566-1.4803 0.70796-0.708 11.453-0.4049 9.7699 2.9605-0.16384 0.3277-2.3841 0.5765-2.6645 0.2961-0.36059-0.3606-0.13868-0.6614-0.59211-0.8882-1.5422-0.7711-9.0448 0.8138-9.1778 0.5921-0.27342-0.4557-0.39474-0.9868-0.59211-1.4802z" style="color:#000000;stroke-width:0;fill:#ffffff" inkscape:connector-curvature="0"/>
          </g>
          <g id="g5346" transform="matrix(.40078 -.056115 .13866 .99034 -743.12 77.619)">
            <ellipse id="path5348" sodipodi:rx="14.485" sodipodi:cy="2841.2" style="color:#000000;stroke:#000000;stroke-width:12;fill:none" d="m -145.885,2841.2 c 0,6.8566 -6.48515,12.415 -14.485,12.415 -7.99984,0 -14.48499,-5.5584 -14.48499,-12.415 0,-6.8567 6.48515,-12.415 14.48499,-12.415 7.99985,0 14.485,5.5583 14.485,12.415 z" sodipodi:ry="12.415" rx="14.485" ry="12.415" transform="matrix(.59568 0 0 .58333 262.1 1209.7)" cy="2841.2" cx="-160.37" sodipodi:cx="-160.37"/>
            <path id="path5350" d="m160.46 2860.4c0.46879 0.2621 1.4691 0.3072 3.2566-1.4803 0.70796-0.708 11.453-0.4049 9.7699 2.9605-0.16384 0.3277-2.3841 0.5765-2.6645 0.2961-0.36059-0.3606-0.13868-0.6614-0.59211-0.8882-1.5422-0.7711-9.0448 0.8138-9.1778 0.5921-0.27342-0.4557-0.39474-0.9868-0.59211-1.4802z" style="color:#000000;stroke-width:0;fill:#ffffff" inkscape:connector-curvature="0"/>
          </g>
          <g id="g5352" transform="matrix(.40078 -.056115 .13866 .99034 -754.84 78.038)">
            <ellipse id="path5354" sodipodi:rx="14.485" sodipodi:cy="2841.2" style="color:#000000;stroke:#000000;stroke-width:12;fill:none" d="m -145.885,2841.2 c 0,6.8566 -6.48515,12.415 -14.485,12.415 -7.99984,0 -14.48499,-5.5584 -14.48499,-12.415 0,-6.8567 6.48515,-12.415 14.48499,-12.415 7.99985,0 14.485,5.5583 14.485,12.415 z" sodipodi:ry="12.415" rx="14.485" ry="12.415" transform="matrix(.59568 0 0 .58333 262.1 1209.7)" cy="2841.2" cx="-160.37" sodipodi:cx="-160.37"/>
            <path id="path5356" d="m160.46 2860.4c0.46879 0.2621 1.4691 0.3072 3.2566-1.4803 0.70796-0.708 11.453-0.4049 9.7699 2.9605-0.16384 0.3277-2.3841 0.5765-2.6645 0.2961-0.36059-0.3606-0.13868-0.6614-0.59211-0.8882-1.5422-0.7711-9.0448 0.8138-9.1778 0.5921-0.27342-0.4557-0.39474-0.9868-0.59211-1.4802z" style="color:#000000;stroke-width:0;fill:#ffffff" inkscape:connector-curvature="0"/>
          </g>
          <g id="g5358" transform="matrix(.40154 .050389 -.12451 .99222 -12.971 54.074)">
            <ellipse id="path5360" sodipodi:rx="14.485" sodipodi:cy="2841.2" style="color:#000000;stroke:#000000;stroke-width:12;fill:none" d="m -145.885,2841.2 c 0,6.8566 -6.48515,12.415 -14.485,12.415 -7.99984,0 -14.48499,-5.5584 -14.48499,-12.415 0,-6.8567 6.48515,-12.415 14.48499,-12.415 7.99985,0 14.485,5.5583 14.485,12.415 z" sodipodi:ry="12.415" rx="14.485" ry="12.415" transform="matrix(.59568 0 0 .58333 262.1 1209.7)" cy="2841.2" cx="-160.37" sodipodi:cx="-160.37"/>
            <path id="path5362" d="m160.46 2860.4c0.46879 0.2621 1.4691 0.3072 3.2566-1.4803 0.70796-0.708 11.453-0.4049 9.7699 2.9605-0.16384 0.3277-2.3841 0.5765-2.6645 0.2961-0.36059-0.3606-0.13868-0.6614-0.59211-0.8882-1.5422-0.7711-9.0448 0.8138-9.1778 0.5921-0.27342-0.4557-0.39474-0.9868-0.59211-1.4802z" style="color:#000000;stroke-width:0;fill:#ffffff" inkscape:connector-curvature="0"/>
          </g>
          <g id="g5364" transform="matrix(.40154 .050389 -.12451 .99222 -20.084 50.727)">
            <ellipse id="path5366" sodipodi:rx="14.485" sodipodi:cy="2841.2" style="color:#000000;stroke:#000000;stroke-width:12;fill:none" d="m -145.885,2841.2 c 0,6.8566 -6.48515,12.415 -14.485,12.415 -7.99984,0 -14.48499,-5.5584 -14.48499,-12.415 0,-6.8567 6.48515,-12.415 14.48499,-12.415 7.99985,0 14.485,5.5583 14.485,12.415 z" sodipodi:ry="12.415" rx="14.485" ry="12.415" transform="matrix(.59568 0 0 .58333 262.1 1209.7)" cy="2841.2" cx="-160.37" sodipodi:cx="-160.37"/>
            <path id="path5368" d="m160.46 2860.4c0.46879 0.2621 1.4691 0.3072 3.2566-1.4803 0.70796-0.708 11.453-0.4049 9.7699 2.9605-0.16384 0.3277-2.3841 0.5765-2.6645 0.2961-0.36059-0.3606-0.13868-0.6614-0.59211-0.8882-1.5422-0.7711-9.0448 0.8138-9.1778 0.5921-0.27342-0.4557-0.39474-0.9868-0.59211-1.4802z" style="color:#000000;stroke-width:0;fill:#ffffff" inkscape:connector-curvature="0"/>
          </g>
          <g id="g5370" transform="matrix(.40154 .050389 -.12451 .99222 -33.054 49.472)">
            <ellipse id="path5372" sodipodi:rx="14.485" sodipodi:cy="2841.2" style="color:#000000;stroke:#000000;stroke-width:12;fill:none" d="m -145.885,2841.2 c 0,6.8566 -6.48515,12.415 -14.485,12.415 -7.99984,0 -14.48499,-5.5584 -14.48499,-12.415 0,-6.8567 6.48515,-12.415 14.48499,-12.415 7.99985,0 14.485,5.5583 14.485,12.415 z" sodipodi:ry="12.415" rx="14.485" ry="12.415" transform="matrix(.59568 0 0 .58333 262.1 1209.7)" cy="2841.2" cx="-160.37" sodipodi:cx="-160.37"/>
            <path id="path5374" d="m160.46 2860.4c0.46879 0.2621 1.4691 0.3072 3.2566-1.4803 0.70796-0.708 11.453-0.4049 9.7699 2.9605-0.16384 0.3277-2.3841 0.5765-2.6645 0.2961-0.36059-0.3606-0.13868-0.6614-0.59211-0.8882-1.5422-0.7711-9.0448 0.8138-9.1778 0.5921-0.27342-0.4557-0.39474-0.9868-0.59211-1.4802z" style="color:#000000;stroke-width:0;fill:#ffffff" inkscape:connector-curvature="0"/>
          </g>
          <g id="g5376" transform="matrix(.51679 .054851 -.16025 1.0801 38.079 -205.71)">
            <ellipse id="path5378" sodipodi:rx="14.485" sodipodi:cy="2841.2" style="color:#000000;stroke:#000000;stroke-width:10.138;fill:none" d="m -145.885,2841.2 c 0,6.8566 -6.48515,12.415 -14.485,12.415 -7.99984,0 -14.48499,-5.5584 -14.48499,-12.415 0,-6.8567 6.48515,-12.415 14.48499,-12.415 7.99985,0 14.485,5.5583 14.485,12.415 z" sodipodi:ry="12.415" rx="14.485" ry="12.415" transform="matrix(.59568 0 0 .58333 262.1 1209.7)" cy="2841.2" cx="-160.37" sodipodi:cx="-160.37"/>
            <path id="path5380" d="m160.46 2860.4c0.46879 0.2621 1.4691 0.3072 3.2566-1.4803 0.70796-0.708 11.453-0.4049 9.7699 2.9605-0.16384 0.3277-2.3841 0.5765-2.6645 0.2961-0.36059-0.3606-0.13868-0.6614-0.59211-0.8882-1.5422-0.7711-9.0448 0.8138-9.1778 0.5921-0.27342-0.4557-0.39474-0.9868-0.59211-1.4802z" style="color:#000000;stroke-width:0;fill:#ffffff" inkscape:connector-curvature="0"/>
          </g>
          <g id="g5382" transform="matrix(.51679 .054851 -.16025 1.0801 24.272 -207.8)">
            <ellipse id="path5384" sodipodi:rx="14.485" sodipodi:cy="2841.2" style="color:#000000;stroke:#000000;stroke-width:10.138;fill:none" d="m -145.885,2841.2 c 0,6.8566 -6.48515,12.415 -14.485,12.415 -7.99984,0 -14.48499,-5.5584 -14.48499,-12.415 0,-6.8567 6.48515,-12.415 14.48499,-12.415 7.99985,0 14.485,5.5583 14.485,12.415 z" sodipodi:ry="12.415" rx="14.485" ry="12.415" transform="matrix(.59568 0 0 .58333 262.1 1209.7)" cy="2841.2" cx="-160.37" sodipodi:cx="-160.37"/>
            <path id="path5386" d="m160.46 2860.4c0.46879 0.2621 1.4691 0.3072 3.2566-1.4803 0.70796-0.708 11.453-0.4049 9.7699 2.9605-0.16384 0.3277-2.3841 0.5765-2.6645 0.2961-0.36059-0.3606-0.13868-0.6614-0.59211-0.8882-1.5422-0.7711-9.0448 0.8138-9.1778 0.5921-0.27342-0.4557-0.39474-0.9868-0.59211-1.4802z" style="color:#000000;stroke-width:0;fill:#ffffff" inkscape:connector-curvature="0"/>
          </g>
          <g id="g5388" transform="matrix(.57307 .052576 -.1777 1.0353 53.842 -82.735)">
            <ellipse id="path5390" sodipodi:rx="14.485" sodipodi:cy="2841.2" style="color:#000000;stroke:#000000;stroke-width:9.8338;fill:none" d="m -145.885,2841.2 c 0,6.8566 -6.48515,12.415 -14.485,12.415 -7.99984,0 -14.48499,-5.5584 -14.48499,-12.415 0,-6.8567 6.48515,-12.415 14.48499,-12.415 7.99985,0 14.485,5.5583 14.485,12.415 z" sodipodi:ry="12.415" rx="14.485" ry="12.415" transform="matrix(.59568 0 0 .58333 262.1 1209.7)" cy="2841.2" cx="-160.37" sodipodi:cx="-160.37"/>
            <path id="path5392" d="m160.46 2860.4c0.46879 0.2621 1.4691 0.3072 3.2566-1.4803 0.70796-0.708 11.453-0.4049 9.7699 2.9605-0.16384 0.3277-2.3841 0.5765-2.6645 0.2961-0.36059-0.3606-0.13868-0.6614-0.59211-0.8882-1.5422-0.7711-9.0448 0.8138-9.1778 0.5921-0.27342-0.4557-0.39474-0.9868-0.59211-1.4802z" style="color:#000000;stroke-width:0;fill:#ffffff" inkscape:connector-curvature="0"/>
          </g>
          <g id="g5394" transform="matrix(.57307 .052576 -.1777 1.0353 52.168 -88.175)">
            <ellipse id="path5396" sodipodi:rx="14.485" sodipodi:cy="2841.2" style="color:#000000;stroke:#000000;stroke-width:9.8338;fill:none" d="m -145.885,2841.2 c 0,6.8566 -6.48515,12.415 -14.485,12.415 -7.99984,0 -14.48499,-5.5584 -14.48499,-12.415 0,-6.8567 6.48515,-12.415 14.48499,-12.415 7.99985,0 14.485,5.5583 14.485,12.415 z" sodipodi:ry="12.415" rx="14.485" ry="12.415" transform="matrix(.59568 0 0 .58333 262.1 1209.7)" cy="2841.2" cx="-160.37" sodipodi:cx="-160.37"/>
            <path id="path5398" d="m160.46 2860.4c0.46879 0.2621 1.4691 0.3072 3.2566-1.4803 0.70796-0.708 11.453-0.4049 9.7699 2.9605-0.16384 0.3277-2.3841 0.5765-2.6645 0.2961-0.36059-0.3606-0.13868-0.6614-0.59211-0.8882-1.5422-0.7711-9.0448 0.8138-9.1778 0.5921-0.27342-0.4557-0.39474-0.9868-0.59211-1.4802z" style="color:#000000;stroke-width:0;fill:#ffffff" inkscape:connector-curvature="0"/>
          </g>
          <g id="g5400" transform="matrix(.57307 .052576 -.1777 1.0353 47.984 -91.104)">
            <ellipse id="path5402" sodipodi:rx="14.485" sodipodi:cy="2841.2" style="color:#000000;stroke:#000000;stroke-width:9.8338;fill:none" d="m -145.885,2841.2 c 0,6.8566 -6.48515,12.415 -14.485,12.415 -7.99984,0 -14.48499,-5.5584 -14.48499,-12.415 0,-6.8567 6.48515,-12.415 14.48499,-12.415 7.99985,0 14.485,5.5583 14.485,12.415 z" sodipodi:ry="12.415" rx="14.485" ry="12.415" transform="matrix(.59568 0 0 .58333 262.1 1209.7)" cy="2841.2" cx="-160.37" sodipodi:cx="-160.37"/>
            <path id="path5404" d="m160.46 2860.4c0.46879 0.2621 1.4691 0.3072 3.2566-1.4803 0.70796-0.708 11.453-0.4049 9.7699 2.9605-0.16384 0.3277-2.3841 0.5765-2.6645 0.2961-0.36059-0.3606-0.13868-0.6614-0.59211-0.8882-1.5422-0.7711-9.0448 0.8138-9.1778 0.5921-0.27342-0.4557-0.39474-0.9868-0.59211-1.4802z" style="color:#000000;stroke-width:0;fill:#ffffff" inkscape:connector-curvature="0"/>
          </g>
          <g id="g5406" transform="matrix(.57307 .052576 -.1777 1.0353 44.218 -94.451)">
            <ellipse id="path5408" sodipodi:rx="14.485" sodipodi:cy="2841.2" style="color:#000000;stroke:#000000;stroke-width:9.8338;fill:none" d="m -145.885,2841.2 c 0,6.8566 -6.48515,12.415 -14.485,12.415 -7.99984,0 -14.48499,-5.5584 -14.48499,-12.415 0,-6.8567 6.48515,-12.415 14.48499,-12.415 7.99985,0 14.485,5.5583 14.485,12.415 z" sodipodi:ry="12.415" rx="14.485" ry="12.415" transform="matrix(.59568 0 0 .58333 262.1 1209.7)" cy="2841.2" cx="-160.37" sodipodi:cx="-160.37"/>
            <path id="path5410" d="m160.46 2860.4c0.46879 0.2621 1.4691 0.3072 3.2566-1.4803 0.70796-0.708 11.453-0.4049 9.7699 2.9605-0.16384 0.3277-2.3841 0.5765-2.6645 0.2961-0.36059-0.3606-0.13868-0.6614-0.59211-0.8882-1.5422-0.7711-9.0448 0.8138-9.1778 0.5921-0.27342-0.4557-0.39474-0.9868-0.59211-1.4802z" style="color:#000000;stroke-width:0;fill:#ffffff" inkscape:connector-curvature="0"/>
          </g>
          <g id="g5412" transform="matrix(.57307 .052576 -.1777 1.0353 45.055 -102.4)">
            <ellipse id="path5414" sodipodi:rx="14.485" sodipodi:cy="2841.2" style="color:#000000;stroke:#000000;stroke-width:9.8338;fill:none" d="m -145.885,2841.2 c 0,6.8566 -6.48515,12.415 -14.485,12.415 -7.99984,0 -14.48499,-5.5584 -14.48499,-12.415 0,-6.8567 6.48515,-12.415 14.48499,-12.415 7.99985,0 14.485,5.5583 14.485,12.415 z" sodipodi:ry="12.415" rx="14.485" ry="12.415" transform="matrix(.59568 0 0 .58333 262.1 1209.7)" cy="2841.2" cx="-160.37" sodipodi:cx="-160.37"/>
            <path id="path5416" d="m160.46 2860.4c0.46879 0.2621 1.4691 0.3072 3.2566-1.4803 0.70796-0.708 11.453-0.4049 9.7699 2.9605-0.16384 0.3277-2.3841 0.5765-2.6645 0.2961-0.36059-0.3606-0.13868-0.6614-0.59211-0.8882-1.5422-0.7711-9.0448 0.8138-9.1778 0.5921-0.27342-0.4557-0.39474-0.9868-0.59211-1.4802z" style="color:#000000;stroke-width:0;fill:#ffffff" inkscape:connector-curvature="0"/>
          </g>
          <g id="g5418" transform="matrix(.57307 .052576 -.1777 1.0353 45.055 -105.75)">
            <ellipse id="path5420" sodipodi:rx="14.485" sodipodi:cy="2841.2" style="color:#000000;stroke:#000000;stroke-width:9.8338;fill:none" d="m -145.885,2841.2 c 0,6.8566 -6.48515,12.415 -14.485,12.415 -7.99984,0 -14.48499,-5.5584 -14.48499,-12.415 0,-6.8567 6.48515,-12.415 14.48499,-12.415 7.99985,0 14.485,5.5583 14.485,12.415 z" sodipodi:ry="12.415" rx="14.485" ry="12.415" transform="matrix(.59568 0 0 .58333 262.1 1209.7)" cy="2841.2" cx="-160.37" sodipodi:cx="-160.37"/>
            <path id="path5422" d="m160.46 2860.4c0.46879 0.2621 1.4691 0.3072 3.2566-1.4803 0.70796-0.708 11.453-0.4049 9.7699 2.9605-0.16384 0.3277-2.3841 0.5765-2.6645 0.2961-0.36059-0.3606-0.13868-0.6614-0.59211-0.8882-1.5422-0.7711-9.0448 0.8138-9.1778 0.5921-0.27342-0.4557-0.39474-0.9868-0.59211-1.4802z" style="color:#000000;stroke-width:0;fill:#ffffff" inkscape:connector-curvature="0"/>
          </g>
          <g id="g5424" transform="matrix(.57307 .052576 -.1777 1.0353 45.473 -109.93)">
            <ellipse id="path5426" sodipodi:rx="14.485" sodipodi:cy="2841.2" style="color:#000000;stroke:#000000;stroke-width:9.8338;fill:none" d="m -145.885,2841.2 c 0,6.8566 -6.48515,12.415 -14.485,12.415 -7.99984,0 -14.48499,-5.5584 -14.48499,-12.415 0,-6.8567 6.48515,-12.415 14.48499,-12.415 7.99985,0 14.485,5.5583 14.485,12.415 z" sodipodi:ry="12.415" rx="14.485" ry="12.415" transform="matrix(.59568 0 0 .58333 262.1 1209.7)" cy="2841.2" cx="-160.37" sodipodi:cx="-160.37"/>
            <path id="path5428" d="m160.46 2860.4c0.46879 0.2621 1.4691 0.3072 3.2566-1.4803 0.70796-0.708 11.453-0.4049 9.7699 2.9605-0.16384 0.3277-2.3841 0.5765-2.6645 0.2961-0.36059-0.3606-0.13868-0.6614-0.59211-0.8882-1.5422-0.7711-9.0448 0.8138-9.1778 0.5921-0.27342-0.4557-0.39474-0.9868-0.59211-1.4802z" style="color:#000000;stroke-width:0;fill:#ffffff" inkscape:connector-curvature="0"/>
          </g>
          <g id="g5430" transform="matrix(.57307 .052576 -.1777 1.0353 46.31 -119.14)">
            <ellipse id="path5432" sodipodi:rx="14.485" sodipodi:cy="2841.2" style="color:#000000;stroke:#000000;stroke-width:9.8338;fill:none" d="m -145.885,2841.2 c 0,6.8566 -6.48515,12.415 -14.485,12.415 -7.99984,0 -14.48499,-5.5584 -14.48499,-12.415 0,-6.8567 6.48515,-12.415 14.48499,-12.415 7.99985,0 14.485,5.5583 14.485,12.415 z" sodipodi:ry="12.415" rx="14.485" ry="12.415" transform="matrix(.59568 0 0 .58333 262.1 1209.7)" cy="2841.2" cx="-160.37" sodipodi:cx="-160.37"/>
            <path id="path5434" d="m160.46 2860.4c0.46879 0.2621 1.4691 0.3072 3.2566-1.4803 0.70796-0.708 11.453-0.4049 9.7699 2.9605-0.16384 0.3277-2.3841 0.5765-2.6645 0.2961-0.36059-0.3606-0.13868-0.6614-0.59211-0.8882-1.5422-0.7711-9.0448 0.8138-9.1778 0.5921-0.27342-0.4557-0.39474-0.9868-0.59211-1.4802z" style="color:#000000;stroke-width:0;fill:#ffffff" inkscape:connector-curvature="0"/>
          </g>
          <g id="g5436" transform="matrix(.57307 .052576 -.1777 1.0353 47.565 -124.99)">
            <ellipse id="path5438" sodipodi:rx="14.485" sodipodi:cy="2841.2" style="color:#000000;stroke:#000000;stroke-width:9.8338;fill:none" d="m -145.885,2841.2 c 0,6.8566 -6.48515,12.415 -14.485,12.415 -7.99984,0 -14.48499,-5.5584 -14.48499,-12.415 0,-6.8567 6.48515,-12.415 14.48499,-12.415 7.99985,0 14.485,5.5583 14.485,12.415 z" sodipodi:ry="12.415" rx="14.485" ry="12.415" transform="matrix(.59568 0 0 .58333 262.1 1209.7)" cy="2841.2" cx="-160.37" sodipodi:cx="-160.37"/>
            <path id="path5440" d="m160.46 2860.4c0.46879 0.2621 1.4691 0.3072 3.2566-1.4803 0.70796-0.708 11.453-0.4049 9.7699 2.9605-0.16384 0.3277-2.3841 0.5765-2.6645 0.2961-0.36059-0.3606-0.13868-0.6614-0.59211-0.8882-1.5422-0.7711-9.0448 0.8138-9.1778 0.5921-0.27342-0.4557-0.39474-0.9868-0.59211-1.4802z" style="color:#000000;stroke-width:0;fill:#ffffff" inkscape:connector-curvature="0"/>
          </g>
          <g id="g5442" transform="matrix(.57307 .052576 -.1777 1.0353 50.494 -133.36)">
            <ellipse id="path5444" sodipodi:rx="14.485" sodipodi:cy="2841.2" style="color:#000000;stroke:#000000;stroke-width:9.8338;fill:none" d="m -145.885,2841.2 c 0,6.8566 -6.48515,12.415 -14.485,12.415 -7.99984,0 -14.48499,-5.5584 -14.48499,-12.415 0,-6.8567 6.48515,-12.415 14.48499,-12.415 7.99985,0 14.485,5.5583 14.485,12.415 z" sodipodi:ry="12.415" rx="14.485" ry="12.415" transform="matrix(.59568 0 0 .58333 262.1 1209.7)" cy="2841.2" cx="-160.37" sodipodi:cx="-160.37"/>
            <path id="path5446" d="m160.46 2860.4c0.46879 0.2621 1.4691 0.3072 3.2566-1.4803 0.70796-0.708 11.453-0.4049 9.7699 2.9605-0.16384 0.3277-2.3841 0.5765-2.6645 0.2961-0.36059-0.3606-0.13868-0.6614-0.59211-0.8882-1.5422-0.7711-9.0448 0.8138-9.1778 0.5921-0.27342-0.4557-0.39474-0.9868-0.59211-1.4802z" style="color:#000000;stroke-width:0;fill:#ffffff" inkscape:connector-curvature="0"/>
          </g>
          <path id="path5448" d="m-183.23 2765.9 0.83681-3.7657c6.6866 4.8219 12.094 7.3135 11.297 31.38l-4.6025 0.4185c7.7798-29.06-4.8376-23.086-7.5313-28.033z" sodipodi:nodetypes="ccccc" style="stroke:#000000;stroke-width:1px;fill:#000000" inkscape:connector-curvature="0"/>
          <path id="path5567" inkscape:connector-curvature="0" sodipodi:nodetypes="ccccc" style="stroke:#000000;stroke-width:1px;fill:#000000" d="m-339.09 2822.4 1.7935-3.4152c-8.2192-0.638-13.957-2.229-28.893 16.659l3.2432 3.2923c12.831-27.21 18.605-14.5 23.857-16.536z"/>
        </g>
      </g>
      <path id="path5299" d="m-343.1 2894.9 3.4483 4.5977" style="stroke:#000000;stroke-width:1px;fill:none" inkscape:connector-curvature="0"/>
      <path id="path5301" d="m-328.74 2898.9 2.2988 2.8736" style="stroke:#000000;stroke-width:1px;fill:none" inkscape:connector-curvature="0"/>
      <path id="path5303" d="m-299.43 2904.7 6.3218 5.1724" style="stroke:#000000;stroke-width:1px;fill:none" inkscape:connector-curvature="0"/>
      <path id="path5305" d="m-285.97 2907.7 5.1317 5.1317" style="stroke:#000000;stroke-width:1px;fill:none" inkscape:connector-curvature="0"/>
      <path id="path5307" d="m-274.31 2903.5c1.6689 4.0961 3.1969 8.8964 6.0647 6.9978" sodipodi:nodetypes="cc" style="stroke:#000000;stroke-width:1px;fill:none" inkscape:connector-curvature="0"/>
      <path id="path5309" d="m-260.32 2904.9 5.1317 10.263" style="stroke:#000000;stroke-width:1px;fill:none" inkscape:connector-curvature="0"/>
      <path id="path5311" d="m-248.19 2903.5 5.1317 6.9978" style="stroke:#000000;stroke-width:1px;fill:none" inkscape:connector-curvature="0"/>
      <path id="path5313" d="m-235.12 2907.7 2.7991 2.3326" style="stroke:#000000;stroke-width:1px;fill:none" inkscape:connector-curvature="0"/>
      <path id="path5315" d="m-222.99 2910 2.7991-6.5313" style="stroke:#000000;stroke-width:1px;fill:none" inkscape:connector-curvature="0"/>
      <path id="path5317" d="m-320.5 2900.2 5.5982 6.0647" style="stroke:#000000;stroke-width:1px;fill:none" inkscape:connector-curvature="0"/>
    </g>
  </g>
  <metadata id="metadata228">
    <rdf:RDF>
      <cc:Work>
        <dc:format>image/svg+xml</dc:format>
        <dc:type rdf:resource="http://purl.org/dc/dcmitype/StillImage"/>
        <cc:license rdf:resource="http://creativecommons.org/licenses/publicdomain/"/>
        <dc:publisher>
          <cc:Agent rdf:about="http://openclipart.org/">
            <dc:title>Openclipart</dc:title>
          </cc:Agent>
        </dc:publisher>
      </cc:Work>
      <cc:License rdf:about="http://creativecommons.org/licenses/publicdomain/">
        <cc:permits rdf:resource="http://creativecommons.org/ns#Reproduction"/>
        <cc:permits rdf:resource="http://creativecommons.org/ns#Distribution"/>
        <cc:permits rdf:resource="http://creativecommons.org/ns#DerivativeWorks"/>
      </cc:License>
    </rdf:RDF>
  </metadata>
</svg>
